<svg width="146" height="114" fill="none" xmlns="http://www.w3.org/2000/svg"><g clip-path="url(#clip0_9_1165)"><path d="M60.624 38.558c-.27.03-.538.057-.808.092-2.283.293-4.56.727-6.852.854-6.202.344-12.115-.788-17.553-3.888-2.966-1.693-5.286-4.064-7.054-6.971-.14-.232-.231-.492-.345-.74l.115-.09c.208.22.436.428.62.668a20.735 20.735 0 007.345 6.104 23.859 23.859 0 007.85 2.334c2.024.245 4.066.422 6.104.449 3.26.04 6.483-.381 9.66-1.137a44.471 44.471 0 009.422-3.41c.534-.265 1.02-.627 1.61-.996-.773-.61-1.452-1.185-2.174-1.705-5.603-4.025-11.206-8.054-16.829-12.054a42.88 42.88 0 00-9.727-5.208 43.87 43.87 0 00-11.614-2.661c-.862-.078-1.727-.12-2.591-.194-.17-.014-.335-.086-.501-.13l.01-.157c.111-.029.221-.072.334-.082 6.518-.53 12.752.568 18.74 3.174 3.946 1.72 7.56 3.993 11.075 6.427 4.816 3.334 9.593 6.72 14.39 10.08 1.077.752 1.338.75 2.41 0 4.102-2.875 8.183-5.778 12.298-8.633 3.377-2.343 6.77-4.669 10.446-6.542 5.44-2.771 11.156-4.512 17.329-4.489.573.002 1.144.027 1.717.031.566.005 1.13 0 1.696 0l.01.126c-1.122.194-2.244.386-3.366.581-3.492.61-6.978 1.241-10.315 2.49-3.69 1.382-7.184 3.162-10.378 5.445-5.295 3.785-10.512 7.678-15.757 11.532-.735.54-1.44 1.121-2.162 1.68-.113.088-.243.156-.366.234l.05.199c1.182.61 2.33 1.298 3.552 1.818a45.46 45.46 0 0011.678 3.217c3.53.483 7.068.51 10.608.064 3.201-.404 6.287-1.188 9.162-2.682a20.644 20.644 0 007.004-5.917 4.45 4.45 0 01.183-.228c.02-.025.05-.042.222-.176-.02.26.018.434-.049.54-2.137 3.37-4.925 6.04-8.537 7.83-3.367 1.667-6.963 2.51-10.673 2.921-4.313.48-8.585.134-12.83-.676a.637.637 0 00-.395.038c.175.165.327.367.528.49 3.38 2.036 6.88 3.802 10.743 4.77 3.738.938 7.48.807 11.23.13 3.228-.582 6.289-1.618 9.095-3.338 4.599-2.822 7.674-6.889 9.718-11.786 1.436-3.44 2.092-7.033 1.929-10.755-.196-4.488-1.461-8.694-3.515-12.676-.665-1.288-1.345-2.565-1.995-3.857-.108-.215-.086-.493-.126-.742.175.164.383.306.521.497 1.616 2.232 3.118 4.53 4.281 7.037 1.199 2.583 2.046 5.268 2.465 8.083.045.304.235 2.629.237 2.937.005 1.543-.044 1.696 0 3.238.111 4.014-1.284 7.068-3.07 10.588-1.395 2.746-3.184 5.23-5.418 7.366-2.573 2.46-5.667 4.042-9.075 5.032-3.329.966-6.729 1.482-10.203 1.48-5.716 0-11.05-1.413-15.86-4.492-4.135-2.645-8.183-5.428-12.254-8.172-1.52-1.024-1.595-1.027-3.091.025-3.27 2.298-6.495 4.663-9.849 6.832-4.546 2.94-9.513 4.893-14.917 5.627-4.07.555-8.09.268-12.041-.87-3.181-.917-6.138-2.318-8.892-4.137-2.76-1.821-4.816-4.282-6.355-7.168-1.797-3.365-2.186-3.982-3.153-7.58-.583-2.169-.643-2.344-.784-4.152-.098-1.255-.035-2.156.025-3.21.235-4.114.887-6.9 2.219-10.166 1.45-3.553 3.557-6.713 5.869-9.76.374.055.278.26.153.479-.638 1.115-1.29 2.224-1.91 3.349C20.069 7.146 18.62 10.618 18 14.384c-.439 2.677-.459 5.366-.174 8.063.317 3.003 1.067 5.888 2.481 8.566 3.11 5.882 7.752 10.018 14.155 12.105 3.206 1.044 6.479 1.66 9.873 1.527 2.918-.114 5.724-.745 8.456-1.74 2.59-.94 5.008-2.228 7.355-3.654.221-.134.388-.356.58-.536l-.109-.167.007.01zm62.344 43.771c-.328-.384-.706-.738-.979-1.157-3.364-5.152-6.711-10.316-10.07-15.47-.401-.614-.852-1.197-1.28-1.792l-.318.06c0 1.051-.01 2.102.002 3.153.045 3.774.101 7.548.146 11.324.017 1.453.305 1.843 1.678 2.376.365.14.673.425.974.766-2.327.617-4.637.346-6.943.341l-.131-.41c.377-.247.722-.584 1.137-.723 1.438-.482 1.677-.724 1.687-2.236.035-5.43.059-10.86.074-16.29.003-.987-.327-1.393-1.269-1.682-.609-.187-1.23-.343-1.822-.571-.172-.066-.263-.336-.392-.513.172-.096.343-.275.516-.275 1.442-.01 2.887-.03 4.323.06.326.02.721.389.926.7 3.205 4.86 6.383 9.739 9.576 14.607.319.488.699.938 1.05 1.406l.223-.09c.027-.4.078-.798.077-1.197-.015-4.024-.034-8.048-.06-12.072-.01-1.426-.405-1.915-1.826-2.346-.155-.049-.337-.098-.441-.207-.172-.182-.292-.414-.433-.624.224-.066.448-.189.672-.19 1.914-.015 3.827-.012 5.741-.004.225 0 .45.07.676.108l.082.275c-.402.233-.779.524-1.207.688-1.565.602-1.67.728-1.675 2.412-.013 6.09-.02 12.183-.058 18.274-.003.409-.236.816-.363 1.224-.098.025-.198.052-.296.076l.003-.001zm-90.463-.941c.263-.158.506-.38.79-.46 1.575-.449 2.053-1.005 2.066-2.633.017-2.04-.015-4.08-.017-6.119 0-2.838.009-5.674.014-8.511 0-.36.015-.717.008-1.076-.028-1.292-.523-1.896-1.756-2.273-.441-.134-.842-.396-1.348-.64.62-.454 12.918-.614 14.678-.3.093 1.536.194 3.098.267 4.66.007.147-.166.302-.256.453-.153-.12-.38-.207-.448-.363a17.01 17.01 0 01-.664-1.777c-.293-.96-.902-1.505-1.924-1.517-1.691-.02-3.382-.026-5.073-.016-.648.003-1.02.3-1.026 1.014-.013 2.038-.073 4.077-.09 6.115-.008 1.038.252 1.266 1.279 1.256.859-.008 1.72-.01 2.578-.013 1.516-.005 1.996-.384 2.374-1.87.114-.451.253-.898.39-1.345.01-.033.092-.045.14-.066.368.463.433 7.293-.03 8.233-.187-.675-.352-1.176-.464-1.69-.328-1.49-.634-1.76-2.192-1.79a48.442 48.442 0 00-2.903.012c-.7.028-1.142.402-1.137 1.15.019 2.507.027 5.014.078 7.52.014.689.581.934 1.162.94 1.858.022 3.716.013 5.573-.035.892-.023 1.453-.599 1.851-1.35.413-.78.814-1.565 1.257-2.328.098-.169.343-.253.52-.375.057.223.206.47.159.668-.321 1.337-.736 2.652-1.017 3.996-.197.936-.784 1.186-1.605 1.183a2304.98 2304.98 0 01-12.22-.073c-.325-.003-.65-.159-.973-.243l-.041-.334v-.004zm72.503.072c-1.172.781-6.237.753-7.315.007.37-.247.677-.508 1.028-.674.886-.42 1.149-.872.87-1.768a97.88 97.88 0 00-1.156-3.442c-.238-.672-.747-1.003-1.466-.998-1.801.014-3.604.062-5.403.028-.783-.014-1.177.316-1.392 1.006-.386 1.236-.792 2.464-1.187 3.697-.208.65-.041 1.1.633 1.395.4.173.73.504 1.15.805-1.129.598-4.882.64-5.84.101.192-.266.325-.61.577-.774 1.676-1.094 2.117-2.902 2.723-4.6 1.92-5.364 3.797-10.743 5.71-16.11.177-.502.482-.957.858-1.685.375.594.69.938.83 1.342 2.095 5.974 4.164 11.96 6.244 17.939.2.573.343 1.193.674 1.681.34.498.864.882 1.337 1.28.32.269.693.477 1.124.769l.001.001zm-13.835-8.74h6.3c-.962-2.877-1.892-5.667-2.838-8.451-.052-.15-.231-.258-.351-.386-.115.136-.277.255-.335.412-.208.568-.38 1.15-.567 1.724-.728 2.21-1.459 4.42-2.21 6.701zm54.724 9.156c-2.277.122-4.554.253-6.828-.08l-.11-.308c.356-.253.684-.562 1.074-.746.73-.344.983-.86.73-1.608-.377-1.122-.754-2.245-1.171-3.352-.263-.7-.778-1.119-1.575-1.117-1.688.003-3.376-.002-5.063 0-.786 0-1.32.392-1.583 1.11a88.767 88.767 0 00-1.24 3.589c-.204.639.013 1.103.697 1.365.461.175.872.481 1.358.76-.795.633-5.097.646-6.099.05.263-.256.461-.564.744-.703.914-.446 1.434-1.19 1.753-2.104 2.121-6.053 4.23-12.109 6.359-18.158.233-.66.574-1.284.865-1.924.103-.015.208-.03.311-.043.272.47.623.913.799 1.416a4155.285 4155.285 0 016.317 18.174c.395 1.142.809 2.23 2.136 2.648.256.08.418.457.624.696l-.103.336.005-.001zm-10.259-18.21c-.263.374-.437.535-.506.732a776.992 776.992 0 00-2.538 7.494c-.223.671.093.986.781.984 1.023-.003 2.047.002 3.069.002 2.242 0 2.277-.01 1.603-2.105-.744-2.313-1.558-4.605-2.41-7.106h.001zM.01 78.467c.062-.824.103-1.651.195-2.472.027-.233.2-.448.306-.672.158.186.39.345.463.558.28.807.483 1.64.762 2.447.626 1.8 2.356 2.937 4.098 2.725 1.901-.23 3.23-1.69 3.404-3.704.175-2.02-.7-3.54-2.305-4.653-1.293-.899-2.677-1.665-3.997-2.527-4.392-2.866-3.209-8.084-.655-10.239 1.538-1.298 3.35-1.499 5.248-1.262.764.096 1.538.273 2.247.563.368.15.83.608.854.954.098 1.397.058 2.805.025 4.208-.005.215-.247.425-.378.639-.15-.197-.356-.374-.441-.596-.275-.72-.465-1.471-.76-2.18-.682-1.634-1.98-2.362-3.713-2.14-1.578.202-2.678 1.274-2.948 2.928-.258 1.582.08 2.974 1.492 3.925 1.421.958 2.87 1.877 4.3 2.821 2.982 1.974 4.19 5.168 3.152 8.313-1.015 3.076-4.155 4.974-7.386 4.444-.79-.129-1.586-.263-2.353-.484C.43 81.718.058 81.18.033 79.955c-.01-.497-.001-.993-.001-1.49H.01v.002zm22.45 4.001c-.24-.511-.543-1.003-.71-1.535-1.796-5.787-3.615-11.566-5.323-17.379-.45-1.537-1.305-2.626-2.586-3.478-.16-.106-.31-.23-.455-.356-.033-.028-.026-.102-.036-.155.594-.508 6.308-.52 7.32.092-.453.343-.819.692-1.248.925-.674.366-.876.867-.673 1.579 1.284 4.502 2.56 9.006 3.855 13.505.1.344.32.655.595 1.2.21-.525.352-.806.436-1.106a4706.96 4706.96 0 003.7-13.21c.336-1.213.111-1.619-1.03-2.256-.323-.18-.561-.512-.838-.776l.117-.307c1.005 0 2.01-.005 3.018.001.72.005 1.443.002 2.16.055.212.015.411.205.616.314-.116.2-.185.51-.355.581-1.3.54-1.787 1.655-2.152 2.87-1.776 5.936-3.545 11.874-5.338 17.806-.17.563-.48 1.082-.727 1.622l-.341.01-.006-.002zm43.503-17.523c-.194-.481-.457-.946-.574-1.444-.604-2.606-.702-2.699-3.367-2.699-2.304 0-2.342 0-2.352 2.27a2220.55 2220.55 0 000 15.615c.003 1.32.48 1.814 1.76 2.1.404.09.765.37 1.146.562l-.043.338c-.311.096-.621.275-.934.276a256 256 0 01-6.065-.025c-.39-.006-.776-.144-1.166-.22l-.075-.31c.48-.26.938-.582 1.445-.772 1.172-.44 1.385-.672 1.392-1.93.031-5.458.056-10.915.075-16.37.003-1.233-.326-1.539-1.593-1.569-3.154-.072-3.366.098-4.223 3.07-.122.422-.481.778-.73 1.163-.089-.438-.259-.879-.25-1.315.02-1.074.106-2.146.196-3.217.09-1.067.364-1.309 1.47-1.324.998-.013 1.995-.003 2.994-.003h9.566c1.566 0 1.64.071 1.721 1.584.057 1.044.127 2.09.152 3.135.008.336-.114.673-.175 1.01-.123.026-.248.05-.371.077l.001-.002zm10.622-5.342c-.323.216-.636.446-.97.643-.139.081-.32.086-.48.131-1.751.498-1.953.755-1.956 2.537a15975.9 15975.9 0 00-.023 15.634c0 1.5.316 1.787 1.802 1.76 1.413-.024 2.828-.003 4.242-.013 1.383-.01 2.143-.544 2.674-1.818.265-.636.538-1.273.87-1.875.15-.273.432-.493.7-.668.055-.037.473.273.451.356-.41 1.63-.81 3.264-1.341 4.856-.119.356-.703.723-1.117.784-.84.124-1.708.045-2.565.046H69.3c-.333 0-.67.005-.996-.043-.166-.024-.316-.16-.473-.246.107-.169.174-.415.327-.493.438-.227.899-.435 1.375-.56.792-.206 1.145-.66 1.145-1.48-.004-5.598.016-11.194.018-16.791 0-1.187-.43-1.711-1.56-2.024-.08-.021-.174-.017-.24-.058-.355-.227-.702-.463-1.051-.698.386-.106.769-.298 1.157-.303 2.19-.03 4.382-.017 6.575-.013.293 0 .587.026.88.04l.127.292v.004z" fill="#EC2027"/><path d="M22.924 103.142c-.087.202-.23.52-.424.953a8.98 8.98 0 01-.731 1.301c-.291.433-.63.814-1.014 1.142-.384.327-.804.491-1.253.491-.335 0-.614-.051-.84-.155a1.744 1.744 0 01-.555-.393 4.399 4.399 0 01-.937.54c-.32.132-.64.19-.959.177-.421-.013-.752-.133-.992-.358-.24-.223-.4-.521-.48-.888-.08-.369-.083-.788-.011-1.258.073-.47.21-.943.414-1.419.218-.492.486-.962.808-1.408a7.02 7.02 0 011.035-1.17 5.151 5.151 0 011.145-.791 2.386 2.386 0 011.155-.271c.407 0 .734.115.98.347.247.232.412.534.492.91.08.376.083.799.011 1.268a5.956 5.956 0 01-.414 1.419c-.16.376-.4.799-.72 1.268-.319.47-.69.9-1.111 1.289.188.36.531.541 1.025.541.35 0 .68-.144.992-.434.313-.289.6-.635.86-1.041.262-.403.495-.815.698-1.236.203-.418.372-.757.501-1.019.059-.116.145-.152.262-.107.116.043.138.144.065.302h-.002zm-3.183-2.817c-.233-.058-.487-.025-.762.097a2.911 2.911 0 00-.829.586 7.016 7.016 0 00-.807.953 7.784 7.784 0 00-.698 1.203 9.04 9.04 0 00-.512 1.267c-.123.397-.2.755-.23 1.073-.03.317-.007.582.065.79.073.211.21.345.414.401.203.058.436.036.698-.065a2.84 2.84 0 00.784-.476 2.083 2.083 0 01-.262-.541 1.756 1.756 0 01-.086-.52c.015-.245.077-.461.185-.65.108-.187.301-.281.577-.281a.62.62 0 01.47.195.641.641 0 01.173.574.832.832 0 01-.034.119 9.16 9.16 0 00.676-1.17c.218-.448.385-.873.501-1.279.117-.403.182-.766.197-1.083.015-.318-.022-.581-.108-.791-.087-.209-.225-.343-.415-.401l.003-.001zm-1.83-9.514c.217-.679.595-1.142 1.133-1.387.538-.245 1.198-.348 1.984-.303.35.015.673.061.97.14.298.08.581.171.851.272.268.101.544.192.829.272.283.079.593.127.927.14.451.03.82-.033 1.112-.183a2.04 2.04 0 00.72-.618c.014-.028.06-.046.14-.054.08-.007.164-.007.252 0a.993.993 0 01.23.043c.066.021.09.04.076.054-.16.217-.346.437-.556.662a4.05 4.05 0 01-.73.607c-.277.18-.581.325-.916.434-.334.11-.697.149-1.09.119a3.578 3.578 0 01-.959-.162 24.116 24.116 0 01-.85-.293 16.15 16.15 0 00-.84-.281 3.82 3.82 0 00-.948-.152c-.393-.029-.716.06-.97.27-.255.211-.448.504-.578.878a3.628 3.628 0 00-.185.867c-.022.275-.008.577.043.91.052.332.135.708.252 1.127.116.418.276.91.479 1.474.087.246.291.812.61 1.7.32.89.618 2.129.895 3.717.028.159.011.202-.055.131a3.781 3.781 0 01-.252-.324 6.156 6.156 0 01-.392-.629 16.585 16.585 0 00-.59-2.275c-.248-.737-.472-1.402-.675-1.994a25.6 25.6 0 00-.425-1.117 12.06 12.06 0 01-.436-1.279 7.11 7.11 0 01-.24-1.365c-.036-.47.025-.935.185-1.398l-.002-.003z" fill="#231F20"/><path d="M28.242 103.121c-.203.433-.421.892-.654 1.376a7.44 7.44 0 01-.83 1.344 4.088 4.088 0 01-1.123 1.008c-.43.259-.948.39-1.56.39a2.216 2.216 0 01-1.45-.509c-.414-.34-.628-.856-.642-1.551 0-.317.04-.657.12-1.019.08-.361.197-.718.35-1.072.153-.354.33-.697.534-1.029a6.462 6.462 0 011.591-1.799c.335-.26.67-.458 1.002-.596a2.55 2.55 0 01.97-.207c.314 0 .593.087.84.26.203.16.323.361.36.608.036.246-.004.516-.12.812a3.456 3.456 0 01-.545.9 5.01 5.01 0 01-.894.846c-.174.13-.38.253-.62.369-.24.115-.492.216-.753.302s-.51.156-.74.206a2.766 2.766 0 01-.568.076c-.087.202-.163.47-.23.802-.065.333-.087.657-.065.975.022.317.11.595.262.834.153.238.41.357.773.357.48 0 .913-.141 1.297-.422a4.98 4.98 0 001.026-1.008 7.73 7.73 0 00.762-1.212c.21-.419.381-.773.512-1.063a.567.567 0 01.164-.228c.065-.05.123-.076.174-.076.052 0 .087.025.11.076.022.051.004.134-.055.25h.002zm-2.267-.629c.291-.245.534-.519.73-.824a3.18 3.18 0 00.404-.845c.073-.26.086-.477.043-.651-.044-.173-.153-.256-.326-.25-.175.007-.415.123-.72.348-.304.223-.684.604-1.133 1.138a8.535 8.535 0 00-.796 1.127c-.24.405-.41.708-.512.91.101 0 .24-.018.414-.054.175-.037.371-.095.59-.174a5.023 5.023 0 001.306-.725z" fill="#231F20"/><path d="M29.529 106.177c.291-.245.556-.544.795-.9a11.5 11.5 0 00.676-1.139c.21-.403.406-.815.59-1.236.18-.418.352-.812.512-1.181.16-.369.313-.693.458-.975.145-.281.298-.494.458-.638a1.36 1.36 0 01.35-.26c.116-.058.254-.098.414-.12a4.2 4.2 0 01.556-.032h.795c.058 0 .065.018.022.054a.982.982 0 01-.197.12 2.04 2.04 0 01-.316.119c-.123.036-.23.054-.316.054-.421-.015-.72.07-.894.25-.175.18-.356.437-.544.77a14.43 14.43 0 00-.753 1.646c-.27.68-.574 1.347-.915 2.005a8.156 8.156 0 01-1.155 1.701c-.43.477-.927.715-1.493.715-.35 0-.673-.061-.97-.184-.299-.122-.542-.357-.732-.705-.26-.476-.337-.858-.23-1.148.109-.289.265-.473.47-.552.203-.08.378-.044.523.109.145.152.123.43-.065.834a.532.532 0 00-.043.369.926.926 0 00.467.617.821.821 0 00.381.097 3.03 3.03 0 00.643-.097 1.25 1.25 0 00.513-.293zm4.687-6.025a.735.735 0 01.338-.357c.138-.064.308-.098.513-.098h1.176c-.16.131-.298.25-.414.358a2.45 2.45 0 00-.338.39 4.82 4.82 0 00-.338.565c-.116.225-.255.503-.414.833-.16.303-.317.618-.47.944-.153.324-.298.643-.436.953a17.5 17.5 0 00-.36.867 3.59 3.59 0 00-.196.681c-.101.464-.098.791.012.987.11.195.243.299.403.314.261 0 .526-.116.795-.348a4.73 4.73 0 00.774-.876c.247-.355.483-.745.71-1.17.224-.426.432-.834.62-1.225.087-.187.185-.256.295-.205.108.051.113.184.011.401-.174.375-.377.79-.61 1.245a9.91 9.91 0 01-.786 1.289 5.01 5.01 0 01-.959 1.02c-.35.274-.719.412-1.112.412-.248 0-.466-.062-.654-.184a1.095 1.095 0 01-.424-.541c-.095-.238-.142-.531-.142-.877s.073-.736.218-1.17c.102-.318.225-.657.372-1.019.144-.361.3-.726.469-1.094.166-.369.334-.733.5-1.093.167-.361.317-.694.449-.998l-.002-.004z" fill="#231F20"/><path d="M35.633 106.415a1.501 1.501 0 01-.142-.726c.007-.282.09-.596.252-.943.174-.361.326-.682.457-.965a28.3 28.3 0 01.393-.812c.132-.26.268-.528.414-.803.145-.275.314-.586.502-.931.276-.52.516-.882.719-1.084.203-.202.479-.296.829-.282.144.015.294.04.447.076.153.037.308.04.47.012-.16.086-.35.275-.568.564-.218.29-.448.629-.687 1.02-.24.39-.48.805-.72 1.246-.24.441-.46.855-.665 1.245a8.258 8.258 0 00-.425.987 3.532 3.532 0 00-.196.834c-.022.246.003.443.076.595a.53.53 0 00.372.293c.101.03.261 0 .479-.086.218-.086.428-.253.633-.498.233-.275.436-.574.61-.9.175-.324.292-.611.35-.856.117-.461.145-.815.087-1.062-.059-.245-.292-.354-.698-.324-.03 0-.033-.018-.011-.055a.351.351 0 01.11-.107.59.59 0 01.184-.086.383.383 0 01.24.011c.261.101.47.325.62.672.154.348.179.715.077 1.105a3.903 3.903 0 01-.74 1.518 3.465 3.465 0 01-1.309 1.04 1.68 1.68 0 01-1.265.065c-.421-.144-.719-.397-.894-.758l-.001-.005zm4.294-1.343a3.124 3.124 0 01-.817-.379 2.57 2.57 0 01-.621-.553 1.004 1.004 0 01-.251-.467.897.897 0 01.011-.466.663.663 0 01.24-.348.714.714 0 01.436-.13c.16 0 .308.064.448.195a.586.586 0 01.206.433.58.58 0 01-.055.196.564.564 0 00-.055.195c.015.131.074.281.175.455.102.174.21.303.326.39.087.073.237.134.448.184.21.051.448.036.71-.043.26-.079.53-.253.806-.52.277-.266.532-.681.763-1.245.073-.202.166-.275.283-.217.116.058.123.195.022.412-.248.534-.498.95-.753 1.246-.255.296-.516.503-.784.617-.27.116-.534.17-.796.162a2.694 2.694 0 01-.74-.119l-.002.002z" fill="#231F20"/><path d="M48.386 103.099c-.203.434-.421.892-.654 1.377-.233.485-.51.932-.83 1.344a4.263 4.263 0 01-1.123 1.019c-.429.268-.948.4-1.56.4a2.198 2.198 0 01-1.45-.519c-.413-.346-.628-.867-.642-1.561 0-.317.04-.657.12-1.019.08-.361.197-.718.35-1.072.153-.354.33-.697.534-1.029a6.473 6.473 0 011.591-1.799c.335-.26.67-.458 1.002-.596.335-.137.658-.205.97-.205.314 0 .593.086.84.26a.922.922 0 01.36.607c.036.247-.004.517-.12.813a3.476 3.476 0 01-.545.9 4.972 4.972 0 01-.894.845 3.701 3.701 0 01-.62.369 7.107 7.107 0 01-1.493.508 2.696 2.696 0 01-.568.076c-.087.202-.163.47-.23.803-.065.332-.087.657-.065.974.022.318.11.596.261.834.154.239.412.358.775.358.479 0 .912-.141 1.296-.422a4.978 4.978 0 001.026-1.008 7.61 7.61 0 00.762-1.213c.21-.418.381-.772.513-1.062a.566.566 0 01.163-.228c.065-.052.123-.076.174-.076.052 0 .087.024.11.076.022.051.004.134-.055.25l.002-.004zm-2.267-.607c.291-.245.534-.519.73-.824a3.18 3.18 0 00.404-.845c.073-.26.086-.477.043-.651-.044-.173-.153-.256-.327-.25-.174.007-.414.123-.718.348-.305.223-.685.604-1.134 1.138a8.534 8.534 0 00-.796 1.127c-.24.405-.41.708-.512.91.101 0 .24-.018.414-.054.175-.037.371-.095.59-.174a5.023 5.023 0 001.306-.725zm.283-4.876a.708.708 0 01-.197.51.662.662 0 01-.5.205.753.753 0 01-.523-.196.665.665 0 01-.218-.52c0-.2.065-.371.196-.509a.662.662 0 01.501-.205c.203 0 .378.065.523.195a.665.665 0 01.218.52zm2.813 0a.709.709 0 01-.196.51.662.662 0 01-.502.205.753.753 0 01-.522-.196.665.665 0 01-.218-.52c0-.2.065-.371.196-.509a.663.663 0 01.501-.205c.203 0 .378.065.523.195a.665.665 0 01.218.52zm13.343 5.548a80.666 80.666 0 01-.763 1.517 8.502 8.502 0 01-.73 1.182 5.792 5.792 0 01-.817.888c-.292.253-.64.473-1.047.66a13.28 13.28 0 01-1.057 2.178 11.866 11.866 0 01-1.613 2.134 9.174 9.174 0 01-2.04 1.625c-.74.434-1.504.65-2.288.65-1.367 0-2.05-.556-2.05-1.669 0-.535.186-1.008.557-1.42a5.467 5.467 0 011.341-1.072c.538-.318 1.06-.586 1.57-.802a27.43 27.43 0 011.493-.586c.486-.174.959-.333 1.417-.477.457-.144.897-.303 1.318-.476a8.64 8.64 0 00.316-1.16c.08-.397.142-.813.185-1.246.043-.419.065-.791.065-1.117 0-.326-.015-.544-.044-.662a21.33 21.33 0 01-.709 1.225 9.746 9.746 0 01-1.003 1.355 4.92 4.92 0 01-1.189.997c-.42.247-.85.303-1.286.174-.553-.231-.898-.581-1.036-1.05-.138-.47-.141-.99-.011-1.561a6.73 6.73 0 01.687-1.744 9.602 9.602 0 011.1-1.603 4.76 4.76 0 011.1-.986 4.24 4.24 0 011.297-.564c.451-.11.906-.123 1.364-.044.457.08.89.278 1.296.596.188.159.295.311.316.455.022.144 0 .257-.064.336a.257.257 0 01-.252.098c-.101-.015-.181-.101-.24-.26-.144-.391-.346-.635-.599-.736-.255-.101-.54-.098-.86.011-.32.108-.658.3-1.014.574-.356.275-.7.593-1.035.953-.393.449-.756.932-1.09 1.453a8.351 8.351 0 00-.775 1.484c-.181.47-.27.882-.261 1.236.007.354.157.596.448.727.32.13.679.054 1.078-.229.4-.281.786-.656 1.156-1.126.37-.47.7-.965.992-1.485.29-.519.486-.953.589-1.3.073-.245.166-.419.283-.52a.852.852 0 01.371-.195c.132-.028.258-.043.381-.043s.23-.036.316-.107c.145.867.194 1.744.142 2.632a13.132 13.132 0 01-.425 2.633c.262-.187.526-.398.796-.629.268-.232.513-.492.73-.781.364-.477.637-.928.818-1.355.182-.427.33-.74.448-.943.101-.187.206-.26.316-.217.11.043.113.174.012.39v.002zm-4.927 4.964a16.617 16.617 0 01-.764.261c-.8.275-1.625.574-2.475.9-.85.325-1.625.718-2.322 1.182-.35.231-.651.523-.906.877s-.421.693-.5 1.019c-.08.324-.044.607.107.845.154.239.455.358.906.358.233 0 .483-.04.752-.119a5.61 5.61 0 00.774-.293c.247-.116.48-.238.698-.369.218-.131.392-.247.522-.348.335-.274.67-.595 1.002-.964a16.4 16.4 0 00.96-1.16c.537-.751.951-1.481 1.242-2.189h.004z" fill="#231F20"/><path d="M63.866 106.177c.291-.245.556-.544.796-.9a11.5 11.5 0 00.676-1.139c.21-.403.406-.815.589-1.236l.512-1.181c.16-.369.313-.693.458-.975.145-.281.298-.494.458-.638a1.36 1.36 0 01.35-.26c.116-.058.254-.098.414-.12a4.2 4.2 0 01.556-.032h.796c.058 0 .064.018.021.054a.982.982 0 01-.196.12 2.04 2.04 0 01-.317.119c-.123.036-.23.054-.316.054-.42-.015-.719.07-.894.25-.174.18-.356.437-.544.77-.233.418-.483.967-.752 1.646-.27.68-.575 1.347-.916 2.005a8.156 8.156 0 01-1.155 1.701c-.43.477-.927.715-1.493.715-.35 0-.672-.061-.97-.184-.298-.122-.541-.357-.731-.705-.261-.476-.338-.858-.23-1.148.108-.289.265-.473.47-.552.203-.08.377-.044.522.109.145.152.123.43-.065.834a.532.532 0 00-.043.369.926.926 0 00.468.617.821.821 0 00.38.097 3.03 3.03 0 00.643-.097 1.25 1.25 0 00.513-.293zm4.687-6.025a.736.736 0 01.338-.357c.138-.064.308-.098.513-.098h1.177c-.16.131-.298.25-.415.358-.116.107-.23.238-.338.39-.108.153-.22.34-.338.565-.116.225-.254.503-.414.833-.16.303-.316.618-.47.944-.152.324-.297.643-.435.953-.139.311-.258.599-.36.867a3.59 3.59 0 00-.196.681c-.102.464-.099.791.011.987.11.195.243.299.403.314.261 0 .526-.116.796-.348a4.73 4.73 0 00.774-.876c.246-.355.482-.745.709-1.17.224-.426.433-.834.62-1.225.087-.187.185-.256.295-.205.109.051.114.184.012.401-.175.375-.378.79-.61 1.245a9.91 9.91 0 01-.787 1.289 5.01 5.01 0 01-.958 1.02c-.35.274-.72.412-1.112.412-.248 0-.466-.062-.654-.184a1.095 1.095 0 01-.425-.541c-.095-.238-.141-.531-.141-.877s.073-.736.218-1.17c.101-.318.224-.657.37-1.019.146-.361.302-.726.47-1.094.167-.369.335-.733.501-1.093.167-.361.317-.694.448-.998l-.002-.004z" fill="#231F20"/><path d="M74.744 103.945c-.234.418-.468.827-.71 1.224a6.65 6.65 0 01-.774 1.051 4.076 4.076 0 01-.872.736 1.828 1.828 0 01-.98.282c-.842 0-1.425-.297-1.745-.889-.188-.347-.286-.647-.294-.9-.007-.253.037-.455.131-.607a.684.684 0 01.36-.303.5.5 0 01.381 0c.108.051.181.155.218.314.037.159-.012.369-.141.629a.627.627 0 00-.044.4 1.061 1.061 0 00.468.672.76.76 0 00.424.119c.247.015.462-.011.643-.076a1.53 1.53 0 00.513-.314 6.66 6.66 0 00.97-1.062c.313-.419.6-.859.86-1.322.029-.029.132-.029.305 0 .074.014.167.029.283.043l.004.003zm-1.702-1.756a4.073 4.073 0 01.72-1.538c.176-.232.376-.434.6-.608a2.12 2.12 0 01.731-.369c.393-.116.734-.144 1.025-.086.292.058.51.189.655.39.144.203.214.477.206.825-.007.347-.12.744-.338 1.191-.32.391-.58.687-.784.889-.175.173-.305.274-.393.302-.086.03-.036-.13.153-.476.188-.348.357-.679.501-.998.145-.318.24-.599.283-.845.044-.245.022-.444-.064-.596-.087-.152-.27-.235-.547-.25a1.17 1.17 0 00-.599.119 1.352 1.352 0 00-.512.445c-.16.217-.332.47-.513.758a4.15 4.15 0 00-.403.803 1.728 1.728 0 00-.11.519c-.015.202.015.387.087.553.073.165.215.296.424.39.212.095.52.113.927.055.204-.028.305.012.305.119 0 .108-.145.177-.436.205-.48.058-.857.033-1.134-.076-.276-.109-.479-.256-.61-.445a1.207 1.207 0 01-.218-.629c-.016-.231 0-.448.043-.65l.001.003zm3.008 1.842a7.545 7.545 0 00-.316.748c-.11.296-.185.586-.23.867-.043.281-.033.524.033.726.066.202.23.303.492.303.276 0 .562-.152.86-.455.298-.303.578-.657.839-1.062.261-.404.498-.813.71-1.225.21-.412.374-.733.49-.964.087-.187.185-.257.295-.206.108.052.111.184.01.401-.16.332-.36.73-.6 1.191-.24.464-.512.907-.817 1.334a5.756 5.756 0 01-1.003 1.094c-.363.302-.756.455-1.177.455-.175 0-.346-.047-.513-.141a1.512 1.512 0 01-.47-.445c-.116-.187-.192-.47-.229-.846a2.275 2.275 0 01.141-1.062c.175-.361.33-.682.47-.965.138-.281.276-.552.414-.812.139-.26.283-.528.436-.803.154-.274.323-.585.513-.931.145-.26.265-.48.36-.662.095-.18.188-.324.283-.433a.834.834 0 01.304-.229.952.952 0 01.425-.043c.145.015.294.04.447.076.154.037.308.04.47.012-.16.086-.353.275-.578.564-.224.29-.457.629-.697 1.019a29.7 29.7 0 00-1.362 2.492v.002zm8.265-.455c.261-.564.522-1.091.785-1.582.262-.491.556-.922.883-1.289a3.625 3.625 0 011.133-.867c.43-.21.94-.314 1.537-.314.595 0 1.016.1 1.351.302.335.202.574.467.72.791a2.4 2.4 0 01.184 1.117 5.356 5.356 0 01-.24 1.301 8 8 0 01-.544 1.322 8.23 8.23 0 01-.73 1.17c-.409.549-.866.971-1.374 1.267-.51.296-1.025.444-1.548.444-.553 0-.956-.138-1.21-.412-.255-.275-.353-.636-.295-1.084.015-.174.08-.354.197-.541a2.13 2.13 0 01.392-.477c.145-.131.298-.213.458-.25a.424.424 0 01.415.119c-.117.144-.243.315-.382.51a1.981 1.981 0 00-.294.596c-.102.375-.105.647-.012.812.095.166.243.25.448.25.188 0 .388-.058.6-.174a4.255 4.255 0 001.221-1.029c.181-.223.353-.445.513-.662.101-.144.221-.339.36-.586a7.52 7.52 0 00.708-1.755c.087-.333.132-.657.132-.975a2.28 2.28 0 00-.295-1.16c-.196-.339-.528-.51-.992-.51-.464 0-.905.12-1.275.358-.37.239-.709.541-1.014.91a8.065 8.065 0 00-.829 1.225c-.248.448-.479.888-.697 1.322-.102.202-.203.281-.305.238-.101-.043-.101-.174 0-.39l-.001.003zm5.56 1.213a.333.333 0 01-.11-.239c0-.086.014-.165.043-.238a4.95 4.95 0 01.153-.281l.544-.693a35.487 35.487 0 01.915-1.096c.234-.266.487-.544.763-.834.276-.289.54-.552.796-.791.254-.238.49-.425.709-.564.218-.137.392-.183.522-.14.203.072.335.195.393.369.058.173.037.368-.065.585-.203.464-.454.95-.752 1.463a24.875 24.875 0 00-.84 1.572c.219-.275.492-.596.818-.965.326-.369.658-.696.992-.986.087-.073.203-.174.35-.303.145-.13.301-.263.47-.4a11.445 11.445 0 01.946-.705l-.218.39a3.456 3.456 0 00-.196.303.42.42 0 01-.197.195c-.131.073-.313.229-.544.467a9.777 9.777 0 01-.654.617c-.233.217-.513.513-.839.889a16.34 16.34 0 00-.949 1.203c-.304.427-.577.855-.817 1.289-.24.433-.396.809-.47 1.126-.247 0-.439-.119-.577-.357-.138-.238-.178-.516-.12-.834a5.17 5.17 0 01.36-1.289c.166-.382.353-.776.556-1.181.174-.376.304-.654.392-.834.087-.181.105-.272.055-.272-.05 0-.184.098-.402.293-.218.196-.531.48-.938.856a4.7 4.7 0 00-.61.629 7.16 7.16 0 00-.48.757v-.001zm10.943-1.604a30.767 30.767 0 01-.784 1.582 6.52 6.52 0 01-.882 1.289 3.676 3.676 0 01-1.133.867c-.43.21-.94.315-1.537.315-.596 0-1.017-.101-1.351-.303a1.753 1.753 0 01-.72-.791 2.405 2.405 0 01-.184-1.117c.022-.419.102-.852.24-1.301.138-.448.32-.888.546-1.322.224-.433.469-.824.73-1.169.407-.55.864-.972 1.374-1.268.509-.296 1.025-.443 1.547-.443.553 0 .956.137 1.21.412.255.274.354.635.295 1.083-.03.174-.098.355-.208.542a1.905 1.905 0 01-.381.476 1.026 1.026 0 01-.458.25.422.422 0 01-.414-.119c.116-.144.243-.315.381-.51s.236-.394.295-.596c.101-.375.105-.646.011-.812a.48.48 0 00-.446-.25c-.203 0-.408.058-.61.174a4.661 4.661 0 00-1.22 1.029c-.19.225-.357.445-.502.662a6.884 6.884 0 00-.36.586 7.688 7.688 0 00-.392.812c-.123.296-.23.611-.316.943a3.863 3.863 0 00-.132.975c0 .433.098.821.295 1.16.196.339.526.509.992.509.466 0 .905-.119 1.275-.357a4.384 4.384 0 001.014-.91c.304-.369.58-.776.828-1.225.247-.448.48-.888.698-1.322.101-.201.203-.281.304-.238.102.043.102.174 0 .391l-.005-.004z" fill="#231F20"/><path d="M108.623 103.185c-.174.376-.377.791-.61 1.246-.234.455-.495.886-.784 1.289a4.728 4.728 0 01-.959 1.008c-.35.268-.719.4-1.112.4-.248 0-.466-.061-.654-.183a1.097 1.097 0 01-.425-.541c-.095-.239-.141-.531-.141-.877s.073-.737.218-1.17c-.19.333-.396.662-.621.986a7.655 7.655 0 01-.719.889 3.802 3.802 0 01-.796.65c-.276.165-.544.25-.807.25a2.55 2.55 0 01-.381-.033 1.206 1.206 0 01-.403-.141 1.168 1.168 0 01-.59-.801 2.082 2.082 0 01-.02-.672 2.79 2.79 0 01.162-.638c.08-.209.175-.412.283-.608.11-.195.215-.393.316-.595a.366.366 0 01-.206-.065c-.065-.043-.062-.137.012-.281.073-.116.138-.238.196-.369.058-.131.123-.26.197-.391l.654-1.257c.218-.419.406-.794.567-1.127a.738.738 0 01.338-.357c.138-.065.308-.098.513-.098h1.33a2.477 2.477 0 00-.348.272 3.667 3.667 0 00-.654.812 7.924 7.924 0 00-.393.736 18.01 18.01 0 00-.544 1.084c-.16.303-.313.614-.458.932-.145.317-.27.577-.371.779-.262.564-.408 1.032-.436 1.408-.03.376.025.639.163.791.138.152.344.174.621.064.276-.109.589-.364.937-.769.304-.347.607-.758.905-1.236.298-.477.584-.971.861-1.484a64.326 64.326 0 001.481-2.935.737.737 0 01.338-.358c.138-.064.308-.097.513-.097h1.177c-.16.13-.298.25-.415.359-.116.109-.23.239-.338.39a4.59 4.59 0 00-.338.566c-.116.225-.254.505-.414.837-.16.305-.316.621-.47.947-.153.326-.298.645-.436.956-.138.311-.258.601-.359.87a3.568 3.568 0 00-.197.685c-.101.464-.098.795.012.99.11.195.243.301.403.316.261 0 .526-.116.795-.348.268-.231.526-.523.775-.877.246-.354.482-.744.709-1.169.224-.426.432-.834.62-1.225.087-.187.185-.256.295-.205.11.051.113.184.012.4l-.004-.005z" fill="#231F20"/><path d="M116.057 103.164a39.76 39.76 0 01-.752 1.463 9.356 9.356 0 01-.829 1.279 5.247 5.247 0 01-.98.974 2.902 2.902 0 01-1.232.531c-.553 1.531-1.377 2.85-2.475 3.955-1.097 1.105-2.439 1.889-4.023 2.351-.553.159-1.047.187-1.483.086-.437-.101-.778-.293-1.026-.574a1.621 1.621 0 01-.393-1.041c-.015-.412.124-.842.415-1.289.291-.433.722-.821 1.297-1.16a12.855 12.855 0 011.929-.921 29.997 29.997 0 012.223-.758c.771-.232 1.505-.455 2.203-.672.086-.26.171-.574.251-.943.08-.369.123-.715.131-1.041.007-.324-.043-.592-.153-.802-.11-.21-.323-.285-.642-.229a6.252 6.252 0 01-.458.206c-.16.064-.326.134-.501.206a.304.304 0 01-.23 0 .232.232 0 01-.131-.119c-.022-.049-.018-.104.012-.162.028-.058.086-.101.174-.131.363-.101.679-.238.949-.412.27-.173.501-.354.698-.541a5.205 5.205 0 00.795-.953c.261-.39.341-.748.24-1.072a1.017 1.017 0 00-.599-.672c-.298-.122-.643-.109-1.036.043-.393.153-.755.51-1.09 1.072-.073.116-.156.26-.251.434l-.305.553c-.11.195-.215.397-.316.607-.102.21-.197.4-.283.574-.087.189-.182.257-.283.205-.102-.049-.095-.198.022-.443.203-.376.406-.773.61-1.192.203-.418.43-.845.676-1.279.335-.607.738-1.05 1.21-1.333.473-.281.922-.425 1.352-.434.429-.006.789.108 1.078.348.292.238.428.574.415 1.007-.03.477-.218.99-.568 1.539-.349.55-.872 1.033-1.569 1.453.552-.015.937.116 1.155.39.218.275.334.614.349 1.02 0 .073-.006.18-.021.324a13.59 13.59 0 01-.055.455 6.83 6.83 0 01-.077.455 3.68 3.68 0 01-.086.348 2.389 2.389 0 001.013-.477c.313-.245.606-.544.883-.9.276-.354.534-.748.774-1.182.239-.433.469-.873.687-1.322.102-.187.203-.259.305-.216.101.043.101.173 0 .39l.001.002zm-5.319 4.768c-.48.159-.974.307-1.484.446-.509.137-.998.281-1.471.433a22.58 22.58 0 00-1.342.477 7.693 7.693 0 00-1.111.531c-.48.274-.869.635-1.167 1.084-.298.448-.476.873-.535 1.279-.058.403.03.729.262.974.233.245.632.311 1.198.195.421-.086.897-.274 1.428-.564a8.995 8.995 0 001.592-1.127 10.202 10.202 0 001.493-1.636 8.7 8.7 0 001.133-2.092h.004z" fill="#231F20"/><path d="M116.493 104.031c-.086.189-.159.339-.218.455-.058.116-.123.26-.196.434-.073.173-.175.405-.305.693-.131.289-.313.701-.544 1.236-.086.159-.19.253-.305.281a2.393 2.393 0 01-.522.043 4.43 4.43 0 01-.403.022.64.64 0 00-.338.109c.523-1.041 1.02-2.067 1.493-3.078a52.695 52.695 0 011.515-2.99c.276-.519.516-.882.719-1.083.203-.202.479-.297.829-.282.145.015.295.04.446.076.153.037.308.04.469.012-.159.086-.352.275-.577.564-.227.29-.458.629-.698 1.019a29.19 29.19 0 00-1.361 2.492l-.004-.003zm3.489-1.191c-.086.246-.239.48-.457.705-.219.223-.473.321-.763.292a1.806 1.806 0 01-.774-.228 1.817 1.817 0 00-.752-.228.576.576 0 00-.393.097.767.767 0 00-.261.293c-.015.03-.074.043-.175.043-.102 0-.138-.021-.11-.064a2.96 2.96 0 01.491-.651.879.879 0 01.752-.281c.277.015.535.083.774.207.24.122.483.199.731.228.175.03.313 0 .415-.086.101-.086.188-.195.261-.324.028-.028.087-.043.175-.043s.116.015.086.043v-.003zm.371 1.191a7.72 7.72 0 00-.316.748c-.11.296-.185.586-.229.867-.044.281-.034.524.033.726.065.202.23.303.491.303.276 0 .562-.152.86-.455.298-.303.578-.657.839-1.062.262-.404.498-.813.709-1.225.21-.412.375-.733.491-.964.087-.187.185-.257.295-.205.108.051.112.183.012.4-.16.333-.36.73-.6 1.191-.239.464-.512.907-.817 1.334a5.727 5.727 0 01-1.004 1.094c-.362.302-.755.455-1.176.455-.175 0-.347-.047-.513-.141a1.511 1.511 0 01-.469-.445c-.117-.187-.212-.47-.283-.846a1.869 1.869 0 01.086-1.062c.175-.361.326-.682.458-.964.131-.282.261-.553.393-.813.131-.26.268-.528.414-.802.145-.275.313-.586.501-.932.277-.52.516-.882.719-1.084.203-.202.48-.296.829-.281.145.015.295.04.446.076.153.037.308.04.47.012-.16.086-.353.274-.578.564-.225.289-.458.629-.697 1.019a29.267 29.267 0 00-1.362 2.492h-.002z" fill="#231F20"/><path d="M131.253 103.185c-.175.376-.378.791-.611 1.246-.233.455-.494.886-.784 1.289a4.703 4.703 0 01-.959 1.008c-.349.268-.719.4-1.112.4-.248 0-.466-.061-.654-.183a1.096 1.096 0 01-.424-.541c-.095-.239-.142-.531-.142-.877s.073-.737.218-1.17c-.19.333-.396.662-.621.986a7.553 7.553 0 01-.719.889 3.797 3.797 0 01-.795.65c-.277.165-.545.25-.808.25a2.56 2.56 0 01-.381-.033 1.206 1.206 0 01-.403-.141 1.167 1.167 0 01-.589-.801 2.12 2.12 0 01-.022-.672c.029-.216.084-.43.164-.638.079-.209.174-.412.283-.608.109-.195.214-.393.316-.595a.37.37 0 01-.207-.065c-.064-.043-.061-.137.012-.281.073-.116.138-.238.196-.369.059-.131.124-.26.197-.391l.654-1.257c.218-.419.406-.794.568-1.127a.73.73 0 01.338-.357 1.2 1.2 0 01.512-.098h1.33a2.537 2.537 0 00-.348.272 3.81 3.81 0 00-.654.812 8.172 8.172 0 00-.393.736 18.01 18.01 0 00-.544 1.084c-.16.303-.313.614-.458.932-.145.317-.269.577-.371.779-.261.564-.408 1.032-.436 1.408-.03.376.025.639.163.791.138.152.345.174.621.064.276-.109.589-.364.937-.769.305-.347.608-.758.906-1.236.298-.477.584-.971.86-1.484s.541-1.023.796-1.527c.254-.505.483-.975.686-1.408a.731.731 0 01.337-.358c.139-.064.308-.097.513-.097h1.177c-.16.13-.298.25-.415.359a2.645 2.645 0 00-.337.39 4.47 4.47 0 00-.338.566 32.03 32.03 0 00-.415.837c-.16.305-.316.621-.469.947-.153.326-.298.645-.436.956-.138.311-.258.601-.36.87a3.63 3.63 0 00-.196.685c-.102.464-.098.795.011.99.11.195.243.301.403.316.262 0 .526-.116.796-.348.268-.231.526-.523.774-.877.246-.354.483-.744.709-1.169.225-.426.433-.834.621-1.225.086-.187.185-.256.294-.205.11.051.114.184.012.4l-.003-.005z" fill="#231F20"/></g><defs><clipPath id="clip0_9_1165"><path fill="#fff" d="M0 0h146v114H0z"/></clipPath></defs></svg>