<svg width="127" height="99" fill="none" xmlns="http://www.w3.org/2000/svg"><path d="M52.734 33.484c-.234.026-.467.05-.702.08-1.986.255-3.967.631-5.96.742-5.396.299-10.539-.684-15.269-3.377-2.58-1.47-4.599-3.529-6.136-6.053-.122-.202-.201-.427-.3-.643.034-.026.067-.051.1-.079.181.193.38.372.539.58a18.029 18.029 0 006.39 5.301 20.78 20.78 0 006.828 2.028c1.76.213 3.537.366 5.31.39 2.836.035 5.639-.331 8.403-.988a38.719 38.719 0 008.195-2.961c.465-.23.887-.545 1.4-.865-.672-.529-1.263-1.03-1.891-1.48-4.874-3.496-9.747-6.995-14.638-10.468a37.317 37.317 0 00-8.462-4.524 38.212 38.212 0 00-10.102-2.31c-.75-.068-1.503-.105-2.254-.168-.148-.013-.291-.075-.436-.114l.009-.136c.097-.025.192-.062.29-.07 5.67-.462 11.093.492 16.301 2.755 3.433 1.493 6.577 3.468 9.635 5.581 4.188 2.896 8.344 5.837 12.517 8.754.936.654 1.164.652 2.096 0 3.568-2.496 7.118-5.018 10.697-7.496 2.938-2.035 5.89-4.055 9.087-5.682 4.732-2.407 9.704-3.918 15.075-3.898.498.001.994.023 1.492.027.493.004.983 0 1.476 0l.008.11c-.976.167-1.951.334-2.927.504-3.038.53-6.07 1.077-8.973 2.162-3.21 1.2-6.25 2.746-9.028 4.729-4.605 3.286-9.143 6.667-13.706 10.014-.64.47-1.252.974-1.88 1.46-.099.076-.212.135-.319.202l.044.173c1.028.53 2.027 1.128 3.09 1.579a39.59 39.59 0 0010.158 2.793c3.07.42 6.148.444 9.227.056 2.785-.35 5.47-1.031 7.97-2.329a17.942 17.942 0 006.092-5.138 4.35 4.35 0 01.16-.199c.017-.021.043-.035.192-.152-.017.226.016.377-.042.469-1.859 2.927-4.284 5.244-7.426 6.799-2.93 1.448-6.057 2.18-9.284 2.538-3.752.416-7.468.116-11.16-.588a.554.554 0 00-.344.033c.152.144.284.319.46.425 2.939 1.77 5.984 3.302 9.344 4.143 3.252.815 6.507.701 9.77.113 2.807-.505 5.47-1.405 7.911-2.9 4-2.45 6.674-5.981 8.452-10.234a21.516 21.516 0 001.679-9.34c-.171-3.897-1.272-7.55-3.058-11.008-.578-1.118-1.17-2.228-1.735-3.35-.094-.187-.075-.428-.11-.644.152.143.333.266.453.431 1.406 1.939 2.712 3.935 3.724 6.112 1.043 2.243 1.78 4.575 2.144 7.019.04.264.205 2.283.206 2.55.004 1.341-.038 1.473 0 2.813.097 3.485-1.116 6.138-2.67 9.194-1.213 2.385-2.77 4.542-4.713 6.397-2.238 2.137-4.93 3.51-7.894 4.37-2.896.84-5.854 1.287-8.875 1.286-4.973 0-9.612-1.227-13.796-3.901-3.597-2.298-7.118-4.715-10.66-7.097-1.322-.89-1.387-.892-2.688.021-2.844 1.996-5.65 4.05-8.567 5.934-3.955 2.553-8.275 4.248-12.977 4.886a25.22 25.22 0 01-10.474-.755c-2.767-.797-5.338-2.014-7.735-3.593-2.4-1.582-4.188-3.718-5.528-6.224-1.562-2.923-1.9-3.459-2.742-6.583-.507-1.884-.559-2.036-.682-3.607-.085-1.089-.03-1.872.022-2.787.204-3.572.772-5.992 1.93-8.828 1.261-3.085 3.094-5.83 5.105-8.475.326.047.242.225.133.415-.554.968-1.122 1.931-1.66 2.908-1.589 2.89-2.848 5.904-3.387 9.175-.382 2.325-.4 4.66-.152 7.002.277 2.608.928 5.114 2.159 7.439 2.704 5.108 6.743 8.7 12.313 10.512 2.788.907 5.635 1.441 8.587 1.326 2.538-.099 4.98-.646 7.356-1.51 2.253-.817 4.356-1.935 6.398-3.174.192-.116.337-.309.504-.465l-.094-.146.005.01zm54.231 38.012c-.285-.333-.614-.64-.851-1.004-2.926-4.475-5.838-8.96-8.76-13.435-.349-.533-.741-1.04-1.113-1.556l-.277.053c0 .912-.008 1.825.002 2.737.039 3.278.088 6.555.127 9.834.015 1.262.265 1.601 1.46 2.064.317.122.585.369.847.665-2.025.536-4.034.3-6.04.296-.037-.12-.076-.239-.114-.356.329-.214.628-.508.989-.628 1.25-.418 1.46-.628 1.468-1.941.03-4.716.05-9.43.064-14.147.003-.858-.284-1.21-1.103-1.461-.53-.163-1.07-.298-1.586-.496-.15-.057-.229-.292-.34-.445.149-.084.298-.239.449-.239 1.254-.008 2.51-.026 3.76.052.284.017.627.338.805.608 2.788 4.22 5.553 8.457 8.33 12.685.278.424.608.814.913 1.221l.194-.079c.023-.346.068-.693.067-1.039-.013-3.495-.029-6.989-.052-10.484-.009-1.238-.352-1.662-1.589-2.037-.134-.042-.292-.085-.383-.18-.149-.158-.254-.359-.377-.541.196-.058.39-.164.585-.166 1.665-.013 3.329-.01 4.994-.003.196 0 .391.06.588.094l.071.238c-.349.203-.678.456-1.05.598-1.361.523-1.452.632-1.456 2.095-.012 5.29-.018 10.58-.051 15.87-.003.354-.206.708-.316 1.063l-.258.066.003-.002zm-78.69-.817c.229-.137.44-.33.688-.4 1.37-.39 1.785-.872 1.796-2.286.015-1.772-.013-3.543-.014-5.313 0-2.465.007-4.928.012-7.392 0-.312.013-.622.007-.934-.025-1.122-.455-1.647-1.528-1.974-.383-.117-.732-.344-1.172-.556.54-.394 11.237-.533 12.767-.26.081 1.333.17 2.69.233 4.046.006.128-.145.263-.223.394-.133-.104-.33-.18-.39-.315a14.666 14.666 0 01-.577-1.543c-.255-.834-.785-1.308-1.674-1.318a250.666 250.666 0 00-4.413-.014c-.563.002-.887.26-.892.88-.012 1.77-.064 3.541-.078 5.311-.007.901.219 1.1 1.112 1.09.747-.006 1.496-.008 2.243-.01 1.319-.005 1.736-.334 2.064-1.624.1-.393.22-.78.34-1.169.008-.028.08-.038.122-.057.32.402.377 6.334-.026 7.15-.163-.586-.307-1.022-.404-1.467-.285-1.295-.551-1.529-1.907-1.555a42.264 42.264 0 00-2.525.01c-.61.025-.993.35-.989.999.016 2.177.023 4.354.068 6.53.012.599.506.811 1.011.817 1.616.019 3.232.011 4.848-.03.776-.02 1.264-.52 1.61-1.173.359-.677.708-1.36 1.093-2.022.085-.146.298-.22.452-.326.05.194.18.408.139.58-.28 1.162-.64 2.304-.885 3.47-.17.814-.682 1.031-1.396 1.028-3.543-.014-7.087-.03-10.63-.063-.283-.003-.565-.138-.846-.211l-.036-.29v-.003zm63.068.063c-1.02.678-5.426.654-6.364.006.323-.215.59-.442.895-.585.77-.365.999-.757.756-1.536a84.328 84.328 0 00-1.005-2.99c-.207-.582-.65-.87-1.276-.865-1.567.011-3.135.053-4.7.024-.68-.013-1.023.274-1.21.873-.336 1.074-.69 2.14-1.032 3.21-.181.565-.037.956.55 1.212.347.15.635.438 1 .7-.981.518-4.246.556-5.08.087.167-.231.283-.53.502-.672 1.458-.95 1.842-2.52 2.369-3.995 1.67-4.658 3.302-9.33 4.966-13.99.155-.436.42-.831.747-1.464.326.516.6.815.723 1.166 1.821 5.188 3.62 10.386 5.43 15.579.174.497.299 1.036.587 1.46.296.432.752.765 1.163 1.11.278.234.602.415.977.668l.002.002zm-12.035-7.59h5.48c-.837-2.499-1.646-4.921-2.469-7.34-.045-.13-.201-.224-.305-.334-.1.117-.24.22-.291.357-.181.493-.33.999-.494 1.498-.633 1.92-1.268 3.838-1.923 5.82h.002zm47.602 7.951c-1.981.106-3.961.22-5.939-.07l-.096-.267c.31-.22.595-.488.934-.648.636-.299.856-.747.636-1.396-.329-.975-.656-1.95-1.019-2.912-.229-.608-.677-.971-1.37-.97-1.468.003-2.937-.001-4.405 0-.683 0-1.148.341-1.377.965a77.56 77.56 0 00-1.078 3.116c-.177.555.011.959.606 1.186.401.152.759.418 1.182.66-.692.55-4.434.561-5.305.044.228-.223.401-.49.647-.61.795-.389 1.247-1.035 1.525-1.829 1.844-5.256 3.679-10.515 5.531-15.768.202-.574.499-1.115.752-1.671l.271-.038c.236.408.542.793.695 1.23a3792.371 3792.371 0 015.495 15.783c.343.992.704 1.937 1.858 2.3.223.07.363.396.543.604l-.09.292.004-.001zm-8.923-15.814c-.229.325-.381.464-.44.635a667.142 667.142 0 00-2.208 6.508c-.194.584.081.857.679.855.89-.003 1.781.002 2.67.002 1.95 0 1.98-.009 1.394-1.828-.647-2.009-1.355-4-2.097-6.172h.002zM.009 68.142c.053-.715.09-1.434.17-2.146.022-.203.173-.39.266-.584.137.161.338.3.402.484.243.702.42 1.424.663 2.126.545 1.563 2.05 2.55 3.565 2.366 1.654-.2 2.809-1.467 2.961-3.217.152-1.753-.61-3.074-2.005-4.04-1.125-.78-2.329-1.446-3.477-2.195-3.82-2.488-2.791-7.02-.57-8.891 1.338-1.128 2.914-1.302 4.565-1.097a7.78 7.78 0 011.955.489c.32.13.722.529.742.829.086 1.213.051 2.436.022 3.654-.004.187-.214.37-.328.555-.13-.171-.31-.325-.384-.518-.24-.625-.404-1.277-.662-1.893-.592-1.419-1.721-2.05-3.229-1.858-1.372.175-2.33 1.106-2.564 2.543-.224 1.374.07 2.582 1.297 3.408 1.237.832 2.497 1.63 3.74 2.45 2.595 1.715 3.646 4.488 2.743 7.22-.884 2.67-3.614 4.319-6.425 3.859-.687-.112-1.38-.229-2.047-.421-1.035-.3-1.358-.766-1.38-1.83-.009-.432-.001-.863-.001-1.294h-.02v.001zm19.528 3.475c-.209-.444-.472-.871-.617-1.334-1.562-5.025-3.145-10.044-4.63-15.092-.393-1.334-1.136-2.28-2.25-3.02a3.87 3.87 0 01-.396-.309c-.029-.024-.023-.089-.032-.135.517-.441 5.488-.451 6.368.08-.394.298-.712.601-1.086.804-.586.317-.761.753-.585 1.37 1.117 3.91 2.227 7.822 3.354 11.729.087.299.278.569.517 1.041.182-.455.306-.7.379-.96 1.077-3.823 2.153-7.645 3.219-11.472.292-1.053.097-1.405-.897-1.958-.28-.157-.488-.446-.728-.674l.101-.267c.875 0 1.75-.005 2.625.001.627.004 1.256.002 1.88.047.184.013.357.179.536.273-.102.174-.161.443-.309.505-1.13.468-1.555 1.437-1.872 2.493-1.545 5.154-3.084 10.311-4.643 15.462-.148.489-.419.94-.633 1.409l-.297.008-.004-.001zM57.38 56.4c-.17-.418-.4-.822-.5-1.254-.526-2.264-.611-2.344-2.93-2.344-2.004 0-2.037 0-2.046 1.971-.02 4.52-.011 9.04 0 13.56.003 1.147.417 1.575 1.531 1.824.352.079.666.322.998.489-.014.097-.025.195-.038.293-.27.083-.54.238-.812.24-1.76.014-3.519.005-5.276-.022-.34-.006-.675-.125-1.014-.191l-.065-.269c.417-.227.815-.506 1.257-.67 1.019-.383 1.204-.584 1.21-1.678.027-4.739.05-9.478.065-14.215.003-1.07-.284-1.336-1.385-1.362-2.744-.063-2.928.085-3.674 2.665-.105.367-.418.676-.634 1.01-.078-.38-.226-.763-.219-1.142.018-.932.093-1.864.171-2.793.078-.927.317-1.137 1.279-1.15.868-.011 1.736-.003 2.605-.003h8.32c1.363 0 1.427.062 1.498 1.375.049.907.11 1.815.132 2.723.007.292-.099.585-.153.877l-.322.067.001-.001zm9.238-4.64c-.28.189-.553.388-.844.56-.12.07-.278.074-.417.113-1.523.432-1.698.655-1.701 2.203-.009 4.526-.016 9.05-.02 13.577 0 1.302.275 1.552 1.568 1.529 1.23-.022 2.46-.003 3.69-.012 1.202-.008 1.864-.472 2.326-1.579.23-.552.468-1.105.756-1.628.13-.237.376-.428.61-.58.047-.032.41.237.392.308-.356 1.416-.706 2.836-1.167 4.218-.103.309-.611.628-.972.681-.73.108-1.486.039-2.231.04h-8.326c-.29 0-.582.005-.865-.037-.145-.022-.276-.14-.412-.214.093-.147.151-.36.284-.428a5.873 5.873 0 011.196-.486c.69-.18.996-.574.996-1.286-.003-4.861.015-9.72.016-14.582 0-1.03-.373-1.486-1.356-1.757-.07-.019-.152-.015-.21-.05-.309-.197-.61-.403-.914-.607.336-.092.669-.259 1.006-.263 1.906-.026 3.813-.014 5.72-.011.254 0 .51.023.765.034l.11.255v.002z" fill="#E6D6BF"/><path d="M19.94 89.571c-.075.175-.2.451-.369.828-.17.376-.382.753-.635 1.13a4.845 4.845 0 01-.882.99c-.334.285-.7.427-1.09.427-.291 0-.535-.044-.73-.135a1.515 1.515 0 01-.484-.34 3.815 3.815 0 01-.815.468 1.95 1.95 0 01-.834.154c-.366-.012-.654-.115-.863-.31a1.443 1.443 0 01-.417-.772 3.013 3.013 0 01-.01-1.092c.064-.408.182-.82.36-1.233.19-.427.423-.835.703-1.223.278-.39.577-.727.9-1.016.323-.289.655-.517.997-.687.341-.17.676-.247 1.004-.235.354 0 .639.1.853.301.215.202.358.465.427.79.07.327.073.695.01 1.102a5.168 5.168 0 01-.36 1.232 6.557 6.557 0 01-.625 1.101 6.48 6.48 0 01-.968 1.12c.164.313.462.47.892.47.304 0 .59-.126.863-.377.272-.252.521-.552.749-.904.227-.35.43-.708.606-1.073.177-.364.323-.659.436-.886.05-.1.126-.132.227-.093.102.037.12.125.057.263h-.002zm-2.768-2.447c-.203-.05-.424-.022-.663.085-.24.106-.48.276-.721.508a6.08 6.08 0 00-.702.828 6.78 6.78 0 00-.607 1.045 7.82 7.82 0 00-.446 1.1 4.647 4.647 0 00-.2.931c-.026.276-.005.506.057.687a.509.509 0 00.36.348c.177.05.38.032.607-.056.227-.088.455-.226.682-.414a1.805 1.805 0 01-.227-.47 1.521 1.521 0 01-.076-.45c.013-.214.067-.402.161-.566.094-.162.262-.244.502-.244.164 0 .3.056.409.17a.557.557 0 01.121.602 7.957 7.957 0 001.024-2.127 4.09 4.09 0 00.17-.941 1.599 1.599 0 00-.093-.687.563.563 0 00-.36-.348l.002-.001zm-1.593-8.262c.19-.59.519-.992.986-1.204.468-.213 1.043-.302 1.726-.263.304.013.585.053.845.122.259.069.505.148.74.235.232.088.473.167.72.236.247.07.516.11.807.122.392.026.714-.028.967-.16s.462-.31.626-.535c.013-.025.053-.04.123-.048.07-.005.142-.005.218 0a.868.868 0 01.2.038c.058.018.078.034.067.047a6.63 6.63 0 01-.484.575c-.184.194-.395.37-.636.527-.24.157-.505.282-.796.377a2.45 2.45 0 01-.948.103 3.122 3.122 0 01-.834-.14c-.254-.083-.5-.167-.74-.255s-.484-.17-.73-.244a3.33 3.33 0 00-.825-.132c-.342-.025-.623.053-.844.235a1.67 1.67 0 00-.503.762 3.15 3.15 0 00-.16.753c-.02.238-.008.501.037.79.045.289.118.615.219.978.101.364.24.79.417 1.28.075.215.253.706.531 1.478s.537 1.848.778 3.227c.024.138.01.175-.048.114a5.319 5.319 0 01-.56-.828 14.398 14.398 0 00-.513-1.976c-.216-.64-.411-1.217-.588-1.731a22.358 22.358 0 00-.369-.97 10.434 10.434 0 01-.38-1.11 6.146 6.146 0 01-.208-1.186 2.97 2.97 0 01.16-1.214v-.003z" fill="#F5F5F5"/><path d="M24.567 89.552c-.177.377-.367.775-.57 1.196a6.47 6.47 0 01-.72 1.167c-.278.357-.604.65-.978.875-.373.225-.825.339-1.356.339-.481 0-.901-.147-1.262-.443-.36-.294-.547-.743-.558-1.346 0-.276.034-.57.104-.885.07-.314.17-.624.304-.931a6.96 6.96 0 01.465-.894 5.621 5.621 0 011.384-1.562c.29-.226.582-.398.872-.517a2.2 2.2 0 01.844-.18c.272 0 .515.075.73.226a.8.8 0 01.312.527c.032.214-.003.448-.104.706-.101.257-.26.517-.474.781a4.358 4.358 0 01-.777.734c-.152.114-.332.22-.54.32-.209.101-.427.19-.655.264a6.353 6.353 0 01-.644.178 2.394 2.394 0 01-.494.066 3.616 3.616 0 00-.2.697c-.056.289-.075.57-.056.846.019.276.096.518.227.725.134.206.358.31.674.31.417 0 .793-.122 1.128-.367a4.34 4.34 0 00.891-.874c.26-.34.481-.69.664-1.054.182-.363.331-.67.446-.922a.497.497 0 01.141-.199c.057-.043.108-.066.152-.066.045 0 .076.022.096.066.019.045.003.117-.048.217h.002zm-1.972-.546c.253-.212.464-.45.635-.715.171-.265.287-.509.35-.734.064-.226.076-.414.038-.565-.037-.151-.133-.223-.284-.217-.151.006-.36.106-.625.302-.265.194-.595.524-.986.988a7.397 7.397 0 00-.692.979c-.209.352-.358.615-.446.79.088 0 .208-.016.36-.047a4.242 4.242 0 001.65-.78z" fill="#F5F5F5"/><path d="M25.686 92.206c.253-.212.483-.472.692-.781.208-.308.404-.637.588-.989.182-.35.353-.708.512-1.073l.446-1.026c.14-.32.272-.602.398-.847.126-.244.26-.43.399-.554.1-.1.202-.176.304-.226.101-.05.221-.085.36-.103.14-.02.3-.03.484-.03h.692c.05 0 .056.017.019.048a.857.857 0 01-.171.104 1.787 1.787 0 01-.275.103.993.993 0 01-.275.048c-.367-.013-.626.06-.778.217-.152.156-.31.379-.473.668-.203.363-.42.84-.655 1.43-.234.59-.5 1.17-.796 1.741a7.096 7.096 0 01-1.005 1.477c-.374.414-.806.62-1.299.62-.304 0-.585-.052-.844-.159-.26-.106-.47-.31-.636-.612-.227-.413-.294-.746-.2-.997.095-.251.23-.41.409-.48.177-.069.329-.037.455.095s.107.374-.057.724a.461.461 0 00-.038.32.799.799 0 00.407.537.711.711 0 00.332.084c.214-.013.401-.04.559-.084.158-.043.307-.128.446-.255zm4.077-5.231a.638.638 0 01.294-.31 1.05 1.05 0 01.446-.086h1.024a8.02 8.02 0 00-.36.31 2.24 2.24 0 00-.295.34 4.113 4.113 0 00-.294.49c-.101.195-.221.437-.36.724-.14.263-.275.536-.409.819-.133.282-.259.559-.379.828-.12.27-.224.52-.313.753-.088.232-.145.43-.17.592-.089.402-.086.686.01.856.095.17.211.26.35.273.227 0 .458-.1.692-.302.233-.2.458-.454.673-.761.215-.308.42-.647.617-1.016.196-.37.377-.724.54-1.064.075-.162.16-.222.257-.178.094.045.098.16.01.348a32.09 32.09 0 01-.532 1.082 8.65 8.65 0 01-.683 1.12 4.353 4.353 0 01-.834.884c-.304.24-.626.358-.967.358a.952.952 0 01-.938-.63 2.065 2.065 0 01-.124-.76c0-.3.064-.64.19-1.016.088-.276.196-.57.323-.886.126-.313.262-.63.408-.95.145-.32.291-.636.436-.95a39.1 39.1 0 00.39-.866l-.002-.002z" fill="#F5F5F5"/><path d="M30.995 92.413a1.301 1.301 0 01-.123-.63c.006-.245.079-.518.219-.82.152-.313.284-.592.398-.837.115-.245.227-.48.342-.706.114-.225.233-.458.36-.697.126-.238.273-.508.436-.809.24-.45.45-.766.626-.94.176-.176.417-.258.72-.245.127.013.257.034.39.066a1 1 0 00.409.01c-.14.075-.304.238-.494.49-.19.251-.39.546-.598.885-.209.34-.417.7-.626 1.082-.208.384-.4.743-.579 1.082a7.132 7.132 0 00-.369.857 3.02 3.02 0 00-.17.724c-.02.214.002.385.066.517a.46.46 0 00.323.254c.088.026.227 0 .417-.074.19-.075.372-.22.55-.433.203-.238.38-.498.531-.782a3.16 3.16 0 00.304-.742c.102-.401.126-.709.076-.923-.051-.213-.254-.307-.607-.282-.026 0-.03-.015-.01-.047a.31.31 0 01.095-.093.537.537 0 01.161-.075.338.338 0 01.209.01c.227.088.408.282.54.583.133.302.154.621.066.96a3.388 3.388 0 01-.644 1.318 3.016 3.016 0 01-1.138.904 1.463 1.463 0 01-1.1.056c-.367-.125-.626-.345-.778-.658l-.002-.005zm3.736-1.166a2.708 2.708 0 01-.71-.33 2.23 2.23 0 01-.54-.48.875.875 0 01-.22-.405.78.78 0 01.01-.405.573.573 0 01.21-.302.62.62 0 01.378-.113.56.56 0 01.39.17c.12.113.18.238.18.376a.499.499 0 01-.048.17.489.489 0 00-.048.169c.013.114.064.244.152.395.088.151.182.263.284.34.075.063.205.116.39.159.182.044.389.031.616-.038.227-.069.462-.22.702-.45.24-.232.462-.593.663-1.083.064-.175.145-.238.246-.188.102.05.108.17.02.358-.216.464-.434.825-.655 1.082-.222.257-.449.437-.682.536-.235.1-.465.148-.692.14a2.342 2.342 0 01-.645-.103l-.001.001z" fill="#F5F5F5"/><path d="M42.09 89.534c-.178.376-.367.774-.57 1.195a6.464 6.464 0 01-.72 1.167 3.723 3.723 0 01-.978.885c-.374.233-.826.348-1.357.348-.48 0-.9-.151-1.261-.452-.36-.3-.547-.753-.559-1.355 0-.275.035-.57.104-.885.07-.313.171-.623.304-.93.134-.308.287-.606.465-.895a5.616 5.616 0 011.384-1.562c.291-.225.582-.397.872-.517.291-.119.572-.178.844-.178s.515.075.73.226a.8.8 0 01.313.527 1.37 1.37 0 01-.105.706 2.996 2.996 0 01-.473.781 4.351 4.351 0 01-.778.734 3.29 3.29 0 01-.54.32c-.208.102-.427.19-.654.264a6.333 6.333 0 01-.644.178 2.388 2.388 0 01-.494.066 3.63 3.63 0 00-.2.697c-.056.289-.075.57-.056.846.018.276.095.518.227.725.133.207.357.31.673.31.417 0 .794-.122 1.128-.367.334-.244.633-.535.892-.874.26-.34.48-.69.663-1.054.183-.363.332-.67.446-.922a.496.496 0 01.142-.199c.056-.044.107-.066.152-.066s.075.022.096.066c.018.045.002.117-.048.217l.001-.002zm-1.973-.528a3.2 3.2 0 00.636-.715c.17-.265.286-.51.35-.735.064-.225.075-.413.038-.564-.038-.151-.133-.223-.284-.217-.152.005-.36.106-.626.301-.264.194-.595.525-.986.989a7.397 7.397 0 00-.692.978c-.208.353-.357.615-.446.79.089 0 .209-.015.36-.047.153-.031.324-.082.514-.15a4.248 4.248 0 001.136-.63zm.246-4.234a.615.615 0 01-.17.442.577.577 0 01-.436.178.656.656 0 01-.455-.17.577.577 0 01-.19-.45c0-.176.057-.324.171-.443a.576.576 0 01.436-.178c.177 0 .329.056.455.17.126.113.19.262.19.45zm2.447 0a.615.615 0 01-.17.442.577.577 0 01-.437.178.656.656 0 01-.454-.17.577.577 0 01-.19-.45c0-.176.057-.324.171-.443a.576.576 0 01.436-.178c.177 0 .329.056.455.17.125.113.19.262.19.45zm11.607 4.818c-.24.49-.462.928-.663 1.317-.203.39-.414.732-.636 1.026a5.035 5.035 0 01-.711.772 3.77 3.77 0 01-.91.573 11.47 11.47 0 01-.92 1.891 10.329 10.329 0 01-1.403 1.854 8.008 8.008 0 01-1.774 1.41c-.644.377-1.309.566-1.99.566-1.19 0-1.783-.483-1.783-1.45 0-.465.16-.875.484-1.233a4.75 4.75 0 011.167-.931 11.61 11.61 0 011.365-.697 23.65 23.65 0 011.299-.509c.422-.15.834-.289 1.232-.414s.78-.263 1.147-.414a7.48 7.48 0 00.275-1.007c.07-.345.123-.705.16-1.082.038-.363.057-.687.057-.97 0-.283-.013-.472-.038-.575a18.52 18.52 0 01-.617 1.064 8.46 8.46 0 01-.873 1.177 4.28 4.28 0 01-1.033.866c-.367.214-.74.263-1.12.151-.48-.201-.78-.504-.9-.912-.12-.409-.123-.86-.01-1.356.114-.495.312-1 .598-1.514.283-.514.603-.978.957-1.392.278-.34.598-.624.957-.857.36-.231.737-.395 1.128-.49a2.892 2.892 0 011.185-.037 2.52 2.52 0 011.128.517c.164.138.257.27.276.395.018.125 0 .223-.057.292a.225.225 0 01-.219.085c-.088-.013-.157-.088-.208-.226-.126-.339-.301-.552-.521-.64-.222-.087-.47-.084-.749.01a3.109 3.109 0 00-.882.5c-.31.238-.61.514-.9.827-.342.39-.658.81-.949 1.262a7.241 7.241 0 00-.673 1.289c-.158.408-.234.766-.227 1.073.005.308.136.517.39.63.277.114.59.048.938-.197a4.85 4.85 0 001.004-.979c.323-.408.61-.838.863-1.289.254-.451.423-.828.513-1.13.063-.212.145-.363.246-.45a.74.74 0 01.323-.17c.114-.024.224-.037.331-.037.108 0 .2-.032.276-.094.125.753.167 1.515.123 2.286a11.394 11.394 0 01-.37 2.286c.228-.162.458-.344.692-.546.234-.2.446-.426.636-.678.316-.414.553-.806.711-1.177.158-.37.287-.642.39-.819.088-.162.179-.225.275-.188.095.037.098.15.01.34zM50.13 93.9a11.55 11.55 0 01-.323.114 29.7 29.7 0 00-.342.113c-.695.239-1.413.499-2.153.782a10.22 10.22 0 00-2.02 1.026 3.016 3.016 0 00-.787.762 2.595 2.595 0 00-.436.885c-.07.281-.038.527.094.734.133.207.395.31.788.31.203 0 .42-.034.654-.103.233-.07.458-.154.673-.254.215-.101.417-.207.607-.32a4.68 4.68 0 00.455-.303 8.1 8.1 0 00.871-.837c.291-.32.57-.656.834-1.008a9.515 9.515 0 001.082-1.9h.003z" fill="#F5F5F5"/><path d="M55.554 92.206a3.69 3.69 0 00.692-.781c.209-.308.404-.637.588-.989.183-.35.354-.708.513-1.073l.446-1.026c.139-.32.272-.602.398-.847.126-.244.26-.43.398-.554.102-.1.203-.176.304-.226.102-.05.222-.085.36-.103.14-.02.3-.03.484-.03h.692c.051 0 .057.017.02.048a.855.855 0 01-.171.104 1.795 1.795 0 01-.276.103.993.993 0 01-.275.048c-.366-.013-.625.06-.777.217-.152.156-.31.379-.474.668-.202.363-.42.84-.654 1.43-.235.59-.5 1.17-.797 1.741a7.092 7.092 0 01-1.004 1.477c-.374.414-.807.62-1.3.62-.303 0-.584-.052-.843-.159-.26-.106-.47-.31-.636-.612-.227-.413-.294-.746-.2-.997.094-.251.23-.41.409-.48.176-.069.328-.037.454.095s.107.374-.056.724a.461.461 0 00-.038.32.8.8 0 00.407.537.711.711 0 00.332.084c.214-.013.4-.04.559-.084.157-.043.306-.128.445-.255zm4.078-5.231a.639.639 0 01.294-.31 1.05 1.05 0 01.446-.086h1.023a8.433 8.433 0 00-.36.31c-.102.094-.2.208-.294.34a4.114 4.114 0 00-.294.49c-.102.195-.222.437-.36.724-.14.263-.276.536-.409.819-.133.282-.26.559-.38.828-.12.27-.224.52-.312.753-.088.232-.145.43-.17.592-.09.402-.086.686.01.856.095.17.21.26.35.273.227 0 .457-.1.692-.302.233-.2.457-.454.673-.761.214-.308.42-.647.617-1.016.195-.37.376-.724.54-1.064.075-.162.16-.222.256-.178.094.045.099.16.01.348-.152.326-.328.687-.531 1.082s-.43.769-.684 1.12a4.353 4.353 0 01-.834.884c-.303.24-.625.358-.967.358a.951.951 0 01-.938-.63 2.063 2.063 0 01-.123-.76c0-.3.064-.64.19-1.016.088-.276.195-.57.323-.886.126-.313.262-.63.408-.95.145-.32.29-.636.436-.95a39.1 39.1 0 00.39-.866l-.002-.002z" fill="#F5F5F5"/><path d="M65.017 90.268c-.203.364-.407.718-.617 1.063-.209.345-.433.65-.673.913-.24.263-.494.477-.76.64-.264.163-.55.243-.852.243-.733 0-1.24-.257-1.517-.771-.164-.302-.25-.562-.257-.782-.005-.22.032-.395.115-.527a.596.596 0 01.313-.263.44.44 0 01.331 0c.094.044.158.135.19.273s-.01.32-.123.546a.544.544 0 00-.038.348.928.928 0 00.407.583c.107.069.23.103.37.103.213.013.4-.01.558-.066a1.34 1.34 0 00.446-.273 5.73 5.73 0 00.844-.922c.272-.364.521-.746.749-1.148.024-.025.114-.025.265 0 .063.013.144.026.246.037l.003.003zm-1.48-1.525a3.542 3.542 0 01.627-1.336c.152-.201.326-.376.521-.527a1.84 1.84 0 01.636-.32c.341-.101.638-.126.892-.075.253.05.443.163.569.339.126.175.187.413.18.715-.007.302-.105.647-.295 1.035-.278.339-.505.596-.682.771-.152.151-.265.239-.341.263-.076.026-.032-.113.133-.413.163-.302.31-.59.436-.867a3.11 3.11 0 00.246-.734c.037-.213.019-.385-.057-.517-.075-.133-.234-.204-.475-.217a1.016 1.016 0 00-.52.103c-.172.082-.32.21-.447.387-.139.188-.288.408-.446.658a3.55 3.55 0 00-.35.697c-.05.125-.083.276-.096.45a.995.995 0 00.076.48c.063.144.186.258.369.34.184.082.452.098.806.047.177-.024.265.01.265.104 0 .093-.126.153-.38.178-.416.05-.745.029-.985-.066s-.417-.223-.531-.387a1.047 1.047 0 01-.19-.546c-.013-.201 0-.39.038-.565v.003zm2.616 1.6c-.088.175-.18.392-.275.65a3.95 3.95 0 00-.2.752c-.037.244-.029.456.03.63.056.176.2.264.427.264.24 0 .489-.132.748-.395.26-.263.502-.57.73-.923.227-.35.433-.705.617-1.063l.427-.838c.075-.162.16-.223.256-.178.094.044.097.16.009.348a38.21 38.21 0 01-.522 1.034 9.528 9.528 0 01-.71 1.158 5.004 5.004 0 01-.874.95c-.315.263-.657.395-1.023.395a.896.896 0 01-.446-.122 1.312 1.312 0 01-.408-.386c-.102-.163-.168-.408-.2-.734a1.97 1.97 0 01.123-.923c.152-.313.286-.592.408-.838.12-.244.24-.48.36-.705.12-.226.247-.459.38-.697.133-.239.28-.509.446-.81.126-.225.23-.416.313-.574.082-.156.163-.281.246-.376a.727.727 0 01.265-.199.828.828 0 01.369-.037 3 3 0 01.39.066 1 1 0 00.408.01c-.14.075-.307.239-.503.49a9.89 9.89 0 00-.606.885 25.42 25.42 0 00-1.184 2.164v.002zm7.189-.395c.228-.49.455-.947.684-1.374.227-.427.483-.8.767-1.12.284-.32.612-.57.986-.752.374-.183.818-.273 1.336-.273.519 0 .885.087 1.176.262.291.176.5.406.626.687.126.282.18.605.16.97-.019.364-.088.74-.208 1.13-.12.389-.278.771-.474 1.148a7.108 7.108 0 01-.635 1.016c-.355.477-.753.843-1.195 1.1a2.655 2.655 0 01-1.346.385c-.481 0-.831-.119-1.053-.358-.221-.238-.307-.551-.256-.94.013-.151.07-.308.17-.47.102-.163.215-.302.342-.414a.889.889 0 01.398-.217.367.367 0 01.361.103 8.722 8.722 0 00-.332.443c-.12.17-.205.342-.256.517-.088.326-.091.562-.01.706a.417.417 0 00.39.216c.163 0 .337-.05.52-.15a3.648 3.648 0 001.064-.894c.157-.194.306-.387.445-.575.089-.125.193-.294.313-.509a6.557 6.557 0 00.617-1.524 3.36 3.36 0 00.114-.847c0-.376-.085-.71-.256-1.007-.17-.294-.459-.442-.863-.442-.404 0-.788.103-1.109.31a3.84 3.84 0 00-.882.79c-.265.32-.505.676-.72 1.064-.216.39-.418.771-.607 1.148-.089.175-.177.244-.265.207-.089-.038-.089-.151 0-.34l-.002.004zM78.178 91a.287.287 0 01-.095-.207c0-.075.013-.144.037-.207.038-.075.083-.157.133-.244l.474-.603a31.473 31.473 0 01.796-.951c.203-.231.423-.472.663-.724.24-.251.471-.48.692-.687.222-.207.428-.369.617-.49.19-.119.342-.16.455-.122.177.063.291.17.342.32.05.151.031.321-.057.51a12.69 12.69 0 01-.654 1.27c-.26.445-.503.9-.73 1.365.19-.239.427-.518.71-.838.285-.32.573-.605.864-.857.075-.063.177-.15.304-.263.126-.113.262-.228.408-.347a9.984 9.984 0 01.824-.612l-.19.339a3.01 3.01 0 00-.17.263.37.37 0 01-.171.17c-.115.062-.273.198-.474.404a8.48 8.48 0 01-.569.536c-.203.189-.446.446-.73.772-.283.326-.558.674-.825 1.045-.265.37-.502.742-.71 1.119-.21.376-.345.703-.41.978-.215 0-.381-.103-.502-.31-.12-.207-.154-.448-.104-.724.064-.414.168-.788.313-1.12.145-.331.307-.673.484-1.025.152-.326.265-.568.341-.724.076-.157.091-.236.048-.236s-.16.085-.35.254c-.19.17-.462.417-.816.743-.24.214-.416.395-.53.546-.115.15-.254.37-.418.658V91zm9.52-1.393c-.227.49-.454.947-.682 1.374-.227.427-.484.8-.767 1.12-.284.318-.614.57-.986.752-.374.183-.818.273-1.337.273-.518 0-.884-.087-1.175-.263a1.521 1.521 0 01-.626-.687 2.085 2.085 0 01-.16-.97 4.61 4.61 0 01.208-1.129c.12-.39.278-.771.475-1.148a7.02 7.02 0 01.636-1.016c.353-.477.75-.843 1.194-1.1a2.655 2.655 0 011.347-.385c.48 0 .83.119 1.052.357.222.239.307.552.256.941a1.403 1.403 0 01-.18.47 1.65 1.65 0 01-.332.414.89.89 0 01-.398.217.367.367 0 01-.36-.103c.1-.125.21-.273.33-.443.12-.17.206-.342.257-.517.088-.326.091-.562.01-.706a.417.417 0 00-.388-.217c-.177 0-.355.05-.531.151a4.012 4.012 0 00-1.061.894 6.503 6.503 0 00-.75 1.083 6.637 6.637 0 00-.616 1.525c-.075.289-.114.57-.114.846 0 .377.085.713.256 1.008.17.294.457.442.863.442.405 0 .787-.103 1.109-.31.323-.207.617-.47.882-.79.265-.321.505-.675.72-1.064.215-.39.418-.771.608-1.148.088-.175.176-.244.264-.207.089.037.089.151 0 .34l-.004-.004z" fill="#F5F5F5"/><path d="M94.487 89.608a31.92 31.92 0 01-.531 1.082c-.203.395-.43.77-.682 1.12a4.115 4.115 0 01-.834.875 1.562 1.562 0 01-.967.347c-.216 0-.406-.053-.57-.159a.952.952 0 01-.368-.47 2.065 2.065 0 01-.123-.761c0-.3.063-.64.19-1.016-.166.288-.345.574-.54.856a6.605 6.605 0 01-.626.772 3.298 3.298 0 01-.693.564c-.24.144-.473.217-.702.217a2.17 2.17 0 01-.331-.028 1.039 1.039 0 01-.35-.123 1.01 1.01 0 01-.513-.696 1.806 1.806 0 01-.019-.582 2.42 2.42 0 01.142-.555c.07-.181.152-.358.246-.527.096-.17.187-.342.275-.518a.318.318 0 01-.18-.056c-.056-.037-.053-.119.01-.244.064-.1.12-.207.172-.32.05-.114.107-.226.17-.34l.57-1.092c.19-.363.353-.69.493-.978a.638.638 0 01.294-.31 1.05 1.05 0 01.446-.085h1.157a2.18 2.18 0 00-.303.235 3.243 3.243 0 00-.569.706 6.923 6.923 0 00-.341.64c-.177.326-.336.639-.474.94a15.57 15.57 0 00-.398.81 20.96 20.96 0 01-.323.676c-.227.49-.355.897-.38 1.223-.025.326.022.555.143.687.12.132.3.15.54.056.24-.095.512-.316.815-.668.265-.302.528-.658.788-1.073.259-.414.508-.844.748-1.29a56.313 56.313 0 001.289-2.548.64.64 0 01.294-.31 1.05 1.05 0 01.446-.086h1.023a7.22 7.22 0 00-.36.312c-.102.095-.2.209-.294.34a3.95 3.95 0 00-.294.49 27.74 27.74 0 00-.36.728c-.14.264-.276.539-.409.822-.133.283-.26.56-.38.83-.12.27-.224.522-.312.756a3.104 3.104 0 00-.17.595c-.09.402-.086.69.01.86.095.169.21.26.35.274.227 0 .457-.101.692-.302.233-.201.457-.454.673-.762.214-.307.42-.646.617-1.016.195-.369.376-.724.54-1.063.075-.162.16-.223.256-.178.096.044.099.16.01.348l-.003-.005z" fill="#F5F5F5"/><path d="M100.954 89.59c-.216.44-.433.862-.655 1.27a7.958 7.958 0 01-.72 1.11c-.26.333-.545.616-.854.847-.31.233-.667.387-1.071.461a9.245 9.245 0 01-2.153 3.434c-.954.96-2.121 1.641-3.5 2.042-.48.138-.91.163-1.29.075-.38-.088-.676-.254-.892-.498a1.404 1.404 0 01-.341-.904c-.013-.358.107-.732.36-1.12.253-.376.628-.712 1.128-1.007a11.27 11.27 0 011.678-.8 25.78 25.78 0 011.934-.658c.67-.202 1.31-.396 1.916-.584.075-.225.15-.498.219-.819.07-.32.107-.62.114-.904.006-.281-.038-.514-.133-.697-.096-.182-.281-.247-.559-.198a5.3 5.3 0 01-.398.178c-.14.056-.284.117-.436.18a.266.266 0 01-.2 0 .204.204 0 01-.114-.104.158.158 0 01.01-.14c.025-.05.075-.088.152-.114.316-.088.59-.207.825-.358.235-.15.436-.307.607-.47a4.416 4.416 0 00.692-.827c.227-.34.297-.65.209-.931a.881.881 0 00-.522-.584c-.259-.106-.559-.094-.9.038-.342.132-.658.442-.949.93a7.308 7.308 0 00-.218.377l-.265.48a9.02 9.02 0 00-.275.528l-.246.498c-.076.164-.158.223-.247.178-.088-.043-.082-.172.02-.385.176-.326.352-.67.53-1.034.177-.364.374-.735.588-1.111.291-.527.642-.912 1.053-1.158.411-.245.802-.37 1.176-.377.373-.005.686.094.938.302.253.207.372.499.36.875-.026.414-.19.86-.493 1.337-.304.477-.759.896-1.366 1.261.481-.013.816.1 1.005.34.19.238.291.532.304.884 0 .063-.005.157-.019.282-.013.125-.029.257-.047.395a5.85 5.85 0 01-.067.395 2.94 2.94 0 01-.075.302c.315-.063.61-.201.882-.414a4.48 4.48 0 00.767-.781c.24-.308.465-.65.673-1.026.209-.377.409-.76.598-1.149.089-.162.177-.225.265-.188.088.038.088.151 0 .34h.002zm-4.628 4.14c-.417.139-.847.267-1.29.388-.443.119-.869.244-1.28.376-.411.132-.8.27-1.167.414-.366.143-.69.297-.967.461a2.971 2.971 0 00-1.015.941c-.26.39-.414.759-.465 1.11-.05.352.026.635.227.847.203.213.55.27 1.043.17.366-.075.78-.239 1.242-.49a7.858 7.858 0 001.384-.979 8.87 8.87 0 001.3-1.42 7.556 7.556 0 00.985-1.817h.003z" fill="#F5F5F5"/><path d="M101.333 90.343c-.075.163-.139.294-.19.395-.05.1-.107.225-.171.376-.063.151-.152.352-.264.602-.115.252-.273.61-.474 1.074-.075.138-.165.22-.265.244a2.087 2.087 0 01-.455.037 3.84 3.84 0 01-.35.019.557.557 0 00-.294.095c.455-.904.888-1.795 1.299-2.673.411-.878.85-1.744 1.317-2.596.241-.451.449-.766.626-.941.177-.176.417-.258.721-.245.126.013.256.035.388.066a.997.997 0 00.408.01c-.139.075-.307.239-.502.49a9.662 9.662 0 00-.607.885 25.312 25.312 0 00-1.184 2.164l-.003-.002zm3.035-1.035a1.696 1.696 0 01-.398.612.787.787 0 01-.664.254 1.584 1.584 0 01-.673-.198 1.58 1.58 0 00-.654-.198.5.5 0 00-.342.085.666.666 0 00-.227.254c-.013.026-.064.037-.152.037-.089 0-.12-.018-.096-.056.102-.188.243-.376.427-.564a.765.765 0 01.655-.245c.24.013.465.072.673.18.209.106.42.172.636.198.152.026.272 0 .36-.074a1.03 1.03 0 00.227-.282c.025-.025.076-.037.153-.037.076 0 .101.013.075.037v-.003zm.323 1.035c-.089.175-.18.392-.275.65a3.915 3.915 0 00-.2.752c-.038.244-.029.456.029.63.056.176.2.264.427.264.24 0 .489-.132.748-.395.26-.263.503-.57.73-.923.228-.35.433-.705.617-1.063.182-.358.326-.637.427-.838.075-.162.161-.223.256-.178.095.044.097.16.011.348-.139.288-.313.633-.522 1.034a9.467 9.467 0 01-.711 1.158 5 5 0 01-.873.95c-.315.263-.657.395-1.023.395a.894.894 0 01-.446-.122 1.318 1.318 0 01-.409-.386c-.101-.163-.184-.408-.246-.734a1.633 1.633 0 01.075-.923c.153-.313.284-.592.399-.838.114-.244.227-.48.341-.705.115-.226.233-.459.361-.697.126-.239.272-.509.436-.81.24-.45.449-.765.625-.94.177-.176.417-.257.721-.245.126.013.257.035.388.066a.987.987 0 00.409.01c-.139.075-.307.24-.503.49a9.874 9.874 0 00-.606.886 26.39 26.39 0 00-1.185 2.164h-.001z" fill="#F5F5F5"/><path d="M114.171 89.608a31.3 31.3 0 01-.531 1.082c-.203.395-.43.77-.682 1.12a4.098 4.098 0 01-.834.875 1.56 1.56 0 01-.967.347c-.216 0-.405-.053-.569-.159a.951.951 0 01-.369-.47 2.055 2.055 0 01-.123-.761c0-.3.063-.64.189-1.016a11.39 11.39 0 01-.54.856 6.562 6.562 0 01-.625.772 3.318 3.318 0 01-.692.564 1.37 1.37 0 01-.703.217 2.25 2.25 0 01-.331-.028 1.044 1.044 0 01-.351-.123 1.01 1.01 0 01-.512-.696 1.798 1.798 0 01-.019-.582c.025-.189.072-.374.142-.555a4.1 4.1 0 01.246-.527c.096-.17.187-.342.275-.518a.315.315 0 01-.179-.056c-.057-.037-.054-.119.01-.244.063-.1.12-.207.171-.32.05-.114.107-.226.171-.34l.569-1.092c.189-.363.353-.69.493-.978a.642.642 0 01.294-.31 1.05 1.05 0 01.446-.085h1.157a2.208 2.208 0 00-.303.235 3.272 3.272 0 00-.569.706 7.039 7.039 0 00-.341.64c-.177.326-.336.639-.474.94-.139.263-.272.534-.398.81a20.96 20.96 0 01-.323.676c-.227.49-.355.897-.379 1.223-.026.326.022.555.142.687s.299.15.54.056c.24-.095.512-.316.815-.668.265-.302.528-.658.788-1.073.259-.414.508-.844.748-1.29a51.8 51.8 0 001.289-2.548.638.638 0 01.294-.31 1.05 1.05 0 01.446-.086h1.023a7.008 7.008 0 00-.36.312c-.102.095-.2.209-.294.34a3.866 3.866 0 00-.294.49 28.87 28.87 0 00-.361.728 20.31 20.31 0 00-.408.822c-.133.283-.259.56-.379.83-.12.27-.225.522-.313.756a3.127 3.127 0 00-.171.595c-.088.402-.085.69.01.86.096.169.212.26.351.274.227 0 .457-.101.692-.302.233-.201.457-.454.673-.762.214-.307.42-.646.617-1.016.195-.369.376-.724.54-1.063.075-.162.161-.223.256-.178.096.044.099.16.01.348l-.003-.005z" fill="#F5F5F5"/></svg>