<svg width="34" height="34" fill="none" xmlns="http://www.w3.org/2000/svg"><path d="M14.542 32.98a2.461 2.461 0 100-4.922 2.461 2.461 0 000 4.923zm11.075 0a2.461 2.461 0 100-4.922 2.461 2.461 0 000 4.923zM20.398 8.467A9.846 9.846 0 104.696 18.533m6.154-7.654l3.692-3.692m1.23 15.973V20.7H12.08a4.922 4.922 0 00-4.922 4.922v4.923" stroke="#CDB189" stroke-width="2" stroke-linecap="round" stroke-linejoin="round"/><path d="M33.001 30.52V18.212a2.461 2.461 0 00-2.461-2.461H18.234a2.461 2.461 0 00-2.462 2.461v4.923" stroke="#CDB189" stroke-width="2" stroke-linecap="round" stroke-linejoin="round"/></svg>