<svg width="23" height="25" fill="none" xmlns="http://www.w3.org/2000/svg"><path d="M0 .8C0 .589.08.386.225.235A.75.75 0 01.767 0h2.3c.17 0 .337.06.472.17.134.11.23.264.271.437l.621 2.595h17.803a.74.74 0 01.326.076c.102.05.192.123.263.214a.814.814 0 01.164.658l-2.3 12.81a.808.808 0 01-.264.468.748.748 0 01-.489.184h-13.8a.748.748 0 01-.49-.184.808.808 0 01-.263-.469L3.082 4.174 2.47 1.601H.767a.75.75 0 01-.542-.234A.819.819 0 010 .8zm4.757 4.003L6.77 16.011h12.528L21.31 4.803H4.757zm2.91 12.81c-.813 0-1.593.337-2.169.937a3.276 3.276 0 00-.898 2.265c0 .849.323 1.663.898 2.264.575.6 1.356.938 2.169.938a3 3 0 002.168-.938c.576-.6.899-1.415.899-2.264 0-.85-.323-1.664-.899-2.265a3.003 3.003 0 00-2.168-.938zm10.734 0c-.814 0-1.594.337-2.169.937a3.276 3.276 0 00-.898 2.265c0 .849.323 1.663.898 2.264.575.6 1.355.938 2.169.938a3 3 0 002.168-.938c.575-.6.898-1.415.898-2.264 0-.85-.323-1.664-.898-2.265a3.003 3.003 0 00-2.168-.938zm-10.734 1.6c.407 0 .797.17 1.084.47.288.3.45.707.45 1.132 0 .424-.162.831-.45 1.132a1.5 1.5 0 01-1.084.469c-.407 0-.797-.169-1.084-.47-.288-.3-.45-.707-.45-1.131 0-.425.162-.832.45-1.133a1.5 1.5 0 011.084-.468zm10.734 0c.406 0 .796.17 1.084.47.287.3.449.707.449 1.132 0 .424-.162.831-.45 1.132a1.5 1.5 0 01-1.083.469c-.407 0-.797-.169-1.085-.47a1.638 1.638 0 01-.449-1.131c0-.425.162-.832.45-1.133a1.5 1.5 0 011.084-.468z" fill="#571919"/></svg>