<svg width="48" height="48" fill="none" xmlns="http://www.w3.org/2000/svg"><g clip-path="url(#clip0_63_153)" fill-rule="evenodd" clip-rule="evenodd"><path d="M7 7c9.4-9.4 24.6-9.4 34 0 9.4 9.4 9.4 24.6 0 34-9.4 9.4-24.6 9.4-34 0-9.4-9.4-9.3-24.6 0-34z" fill="#1773A6"/><path d="M18.2 32.1c-2-1.1-3.4-2.7-4.7-4.5-2.6-3.4-4.5-7.2-6.3-11.1-.4-.9-.1-1.4.8-1.4h4.8c.7 0 1.1.4 1.4 1 .9 2.2 1.9 4.2 3.3 6.1.3.4.7 1 1.2 1.3.5.3 1 .2 1.2-.4.2-.3.3-.8.3-1.2.1-1.5.1-3-.1-4.5-.1-.9-.7-1.5-1.5-1.6-.4-.1-.4-.3-.2-.5.4-.4.8-.8 1.5-.8h5.6c.9.2 1.1.5 1.2 1.4v6.3c0 .3.1 1.3.8 1.5.5.2.8-.2 1.1-.5 1.3-1.4 2.3-3.1 3.2-4.8.3-.8.7-1.5 1-2.3.2-.7.7-.9 1.3-.9H40c.9.2 1.1.5.9 1.4-.4 1.4-1.3 2.5-2.2 3.7-.9 1.2-1.9 2.4-2.7 3.6-.8 1.2-.7 1.8.3 2.7 1.1 1.1 2.3 2.2 3.3 3.4.4.4.9 1 1.2 1.6.4.9 0 1.9-.8 2h-5c-1.3.1-2.3-.4-3.2-1.3-.7-.7-1.3-1.4-2-2.2-.2-.2-.5-.5-.9-.8-.7-.4-1.2-.3-1.6.4-.3.7-.4 1.4-.4 2.3-.1 1.1-.4 1.4-1.7 1.5-2.5.2-4.8-.2-7-1.4z" fill="#fff"/></g><defs><clipPath id="clip0_63_153"><path fill="#fff" d="M0 0h48v48H0z"/></clipPath></defs></svg>